<?xml version="1.0" encoding="UTF-8" standalone="no"?>
<svg
   xmlns:dc="http://purl.org/dc/elements/1.1/"
   xmlns:cc="http://creativecommons.org/ns#"
   xmlns:rdf="http://www.w3.org/1999/02/22-rdf-syntax-ns#"
   xmlns:svg="http://www.w3.org/2000/svg"
   xmlns="http://www.w3.org/2000/svg"
   viewBox="0 0 133.33333 40"
   height="40"
   width="133.33333"
   xml:space="preserve"
   id="svg2"
   version="1.1"><metadata
     id="metadata8"><rdf:RDF><cc:Work
         rdf:about=""><dc:format>image/svg+xml</dc:format><dc:type
           rdf:resource="http://purl.org/dc/dcmitype/StillImage" /></cc:Work></rdf:RDF></metadata><defs
     id="defs6"><clipPath
       id="clipPath18"
       clipPathUnits="userSpaceOnUse"><path
         id="path16"
         d="M 0,30 H 100 V 0 H 0 Z" /></clipPath></defs><g
     transform="matrix(1.3333333,0,0,-1.3333333,0,40)"
     id="g10"><g
       id="g12"><g
         clip-path="url(#clipPath18)"
         id="g14"><g
           transform="translate(65.7051,13.0879)"
           id="g20"><path
             id="path22"
             style="fill:#161823;fill-opacity:1;fill-rule:nonzero;stroke:none"
             d="m 0,0 c -0.577,0 -1.06,-0.206 -1.473,-0.611 -0.189,-0.19 -0.336,-0.397 -0.43,-0.612 -0.121,-0.258 -0.173,-0.534 -0.173,-0.827 v -0.275 c -0.017,-0.095 -0.069,-0.25 -0.138,-0.474 l -0.25,-0.413 c -0.077,-0.096 -0.181,-0.216 -0.336,-0.362 -0.18,-0.113 -0.336,-0.19 -0.438,-0.25 -0.095,-0.034 -0.25,-0.077 -0.475,-0.112 -0.163,-0.035 -0.336,-0.035 -0.499,0 -0.224,0.035 -0.388,0.078 -0.5,0.112 l -0.413,0.25 c -0.146,0.146 -0.259,0.266 -0.336,0.362 -0.112,0.146 -0.198,0.284 -0.25,0.413 -0.077,0.241 -0.12,0.397 -0.138,0.474 v 8.484 c 0.018,0.094 0.07,0.25 0.138,0.474 0.052,0.129 0.138,0.266 0.25,0.413 l 0.336,0.336 c 0.146,0.112 0.284,0.198 0.413,0.25 0.225,0.077 0.388,0.12 0.5,0.138 h 0.499 C -3.566,7.752 -3.411,7.701 -3.238,7.632 -3.092,7.58 -2.946,7.494 -2.8,7.382 -2.765,7.365 -2.722,7.339 -2.688,7.296 -2.653,7.261 -2.61,7.209 -2.566,7.158 -2.523,7.106 -2.489,7.063 -2.472,7.046 l 0.249,-0.413 c 0.078,-0.224 0.121,-0.388 0.138,-0.5 V 5.909 c 0,-0.551 0.207,-1.034 0.612,-1.438 C -1.068,4.066 -0.577,3.859 0,3.859 0.551,3.859 1.042,4.066 1.455,4.471 1.869,4.875 2.067,5.358 2.05,5.909 2.05,6.185 2.016,6.581 1.937,7.098 1.903,7.322 1.843,7.52 1.774,7.709 1.68,8.002 1.533,8.355 1.335,8.76 1.223,8.967 1.111,9.139 0.999,9.286 0.818,9.561 0.586,9.845 0.31,10.147 c -0.035,0.034 -0.328,0.267 -0.862,0.689 -0.422,0.336 -0.956,0.594 -1.576,0.775 -0.206,0.095 -0.404,0.146 -0.611,0.164 -0.422,0.095 -0.81,0.138 -1.163,0.138 -0.276,0 -0.672,-0.035 -1.189,-0.112 -0.163,-0.018 -0.37,-0.07 -0.611,-0.138 C -6.185,11.482 -6.537,11.327 -6.753,11.224 -6.882,11.172 -7.055,11.068 -7.278,10.922 -7.684,10.629 -7.984,10.388 -8.165,10.198 -8.217,10.147 -8.458,9.854 -8.889,9.337 -9.165,9.001 -9.423,8.484 -9.664,7.787 -9.759,7.58 -9.811,7.382 -9.828,7.175 -9.905,6.822 -9.957,6.435 -9.991,6.012 v -7.976 c 0,-0.163 0.009,-0.284 0.025,-0.361 0,-0.354 0.043,-0.741 0.138,-1.163 0.078,-0.258 0.138,-0.456 0.198,-0.585 0.181,-0.483 0.345,-0.836 0.474,-1.052 0.112,-0.181 0.336,-0.481 0.663,-0.887 0.276,-0.336 0.715,-0.715 1.301,-1.136 0.164,-0.113 0.344,-0.216 0.525,-0.302 0.405,-0.181 0.767,-0.327 1.077,-0.413 0.129,-0.035 0.508,-0.104 1.137,-0.19 0.146,-0.017 0.37,-0.026 0.663,-0.026 0.259,0.017 0.646,0.069 1.163,0.138 0.258,0.078 0.456,0.137 0.586,0.189 0.404,0.13 0.758,0.276 1.051,0.448 0.129,0.077 0.43,0.284 0.913,0.638 0.335,0.275 0.715,0.715 1.137,1.301 0.043,0.043 0.094,0.12 0.163,0.232 0.051,0.077 0.103,0.181 0.164,0.293 0.163,0.31 0.301,0.663 0.413,1.051 0.078,0.258 0.121,0.456 0.137,0.585 C 2.016,-2.687 2.05,-2.3 2.05,-2.041 2.067,-1.489 1.869,-1.008 1.455,-0.603 1.033,-0.206 0.551,0 0,0" /></g><g
           transform="translate(97.7207,15.8447)"
           id="g24"><path
             id="path26"
             style="fill:#161823;fill-opacity:1;fill-rule:nonzero;stroke:none"
             d="M 0,0 H -2.688 C -3.265,0 -3.747,-0.207 -4.16,-0.612 -4.178,-0.629 -4.195,-0.646 -4.212,-0.664 -4.229,-0.681 -4.238,-0.689 -4.255,-0.707 -4.272,-0.724 -4.29,-0.741 -4.307,-0.767 -4.315,-0.784 -4.333,-0.792 -4.342,-0.81 -4.35,-0.827 -4.367,-0.836 -4.376,-0.853 -4.401,-0.879 -4.419,-0.913 -4.437,-0.939 -4.444,-0.948 -4.453,-0.965 -4.462,-0.974 -4.479,-1 -4.496,-1.034 -4.514,-1.06 -4.522,-1.068 -4.522,-1.085 -4.531,-1.094 -4.548,-1.128 -4.574,-1.171 -4.591,-1.215 -4.6,-1.232 -4.608,-1.258 -4.617,-1.275 -4.626,-1.301 -4.634,-1.318 -4.643,-1.344 -4.669,-1.413 -4.686,-1.473 -4.703,-1.551 v -0.008 c -0.009,-0.026 -0.009,-0.043 -0.018,-0.069 -0.034,-0.146 -0.051,-0.302 -0.051,-0.465 0,-0.552 0.207,-1.034 0.612,-1.438 0.404,-0.406 0.895,-0.613 1.472,-0.613 H -2.05 V -4.41 c 0,-0.336 -0.009,-0.379 -0.026,-0.543 -0.017,-0.111 -0.069,-0.276 -0.138,-0.499 -0.052,-0.112 -0.138,-0.259 -0.25,-0.44 -0.077,-0.094 -0.206,-0.215 -0.388,-0.362 -0.128,-0.095 -0.275,-0.181 -0.438,-0.275 -0.225,-0.077 -0.397,-0.12 -0.525,-0.138 -0.164,-0.034 -0.345,-0.034 -0.526,0 -0.13,0.018 -0.302,0.069 -0.526,0.138 -0.163,0.094 -0.31,0.18 -0.439,0.275 -0.094,0.078 -0.224,0.198 -0.387,0.362 -0.113,0.181 -0.199,0.336 -0.25,0.44 -0.078,0.223 -0.12,0.388 -0.138,0.499 -0.018,0.146 -0.026,0.362 -0.026,0.638 V 2.67 c 0,0.258 0.008,0.456 0.026,0.585 0.018,0.113 0.068,0.276 0.138,0.5 0.034,0.052 0.086,0.129 0.137,0.224 0.052,0.095 0.095,0.164 0.113,0.224 0.163,0.164 0.293,0.284 0.387,0.362 0.129,0.095 0.276,0.181 0.439,0.275 0.224,0.078 0.396,0.121 0.525,0.138 h 0.527 C -3.687,4.961 -3.515,4.909 -3.29,4.84 -3.127,4.746 -2.98,4.66 -2.852,4.565 -2.67,4.418 -2.541,4.298 -2.464,4.203 -2.429,4.151 -2.378,4.074 -2.326,3.979 -2.274,3.884 -2.231,3.815 -2.214,3.755 -2.137,3.548 -2.093,3.376 -2.076,3.23 -2.059,3.178 -2.05,3.101 -2.05,3.006 -2.05,2.412 -1.844,2.127 -1.438,1.74 -1.034,1.335 -0.552,1.128 0,1.128 c 0.568,0 1.067,0.207 1.481,0.612 0.414,0.405 0.612,0.689 0.594,1.266 0,0.465 -0.052,0.913 -0.163,1.361 C 1.878,4.53 1.731,4.953 1.473,5.616 1.249,6.115 0.913,6.624 0.447,7.14 0.353,7.252 0.198,7.398 -0.026,7.58 -0.362,7.872 -0.663,8.105 -0.939,8.269 -1.034,8.32 -1.137,8.38 -1.258,8.432 -1.378,8.484 -1.517,8.544 -1.671,8.613 -1.826,8.682 -1.947,8.725 -2.016,8.768 -2.145,8.82 -2.36,8.889 -2.653,8.966 -3.041,9.043 -3.437,9.095 -3.842,9.13 -4.135,9.13 -4.358,9.121 -4.505,9.104 -5.168,9.009 -5.556,8.949 -5.668,8.906 -5.849,8.872 -6.202,8.742 -6.719,8.518 -7.123,8.337 -7.614,8.01 -8.191,7.545 L -8.604,7.131 C -8.897,6.795 -9.13,6.503 -9.294,6.245 -9.475,5.934 -9.578,5.745 -9.596,5.693 -9.837,5.142 -9.975,4.789 -10.009,4.642 -10.043,4.513 -10.112,4.125 -10.207,3.479 -10.225,3.368 -10.232,3.204 -10.232,2.98 v -6.511 c 0,-1.327 0.086,-2.283 0.249,-2.852 0.035,-0.146 0.172,-0.499 0.414,-1.051 0.016,-0.034 0.068,-0.12 0.137,-0.266 0.069,-0.147 0.129,-0.233 0.163,-0.293 0.423,-0.595 0.802,-1.026 1.138,-1.301 0.077,-0.052 0.172,-0.129 0.293,-0.224 0.12,-0.094 0.233,-0.172 0.336,-0.25 0.103,-0.077 0.197,-0.137 0.292,-0.198 0.259,-0.146 0.604,-0.302 1.025,-0.473 0.422,-0.165 1.008,-0.285 1.748,-0.362 0.147,-0.017 0.372,-0.026 0.665,-0.026 0.387,0.017 0.774,0.077 1.162,0.164 0.31,0.095 0.517,0.154 0.612,0.197 0.517,0.207 0.861,0.362 1.024,0.475 0.242,0.129 0.543,0.352 0.913,0.663 0.181,0.146 0.336,0.275 0.44,0.388 0.163,0.18 0.396,0.482 0.688,0.886 0.036,0.052 0.095,0.147 0.164,0.268 0.078,0.12 0.129,0.206 0.165,0.266 0.059,0.129 0.12,0.25 0.163,0.379 0.026,0.061 0.051,0.12 0.069,0.172 0.009,0.018 0.017,0.044 0.025,0.061 0.027,0.069 0.052,0.129 0.078,0.198 0.026,0.077 0.06,0.155 0.078,0.232 0.008,0.035 0.025,0.07 0.034,0.104 0.009,0.018 0.009,0.043 0.017,0.061 0.009,0.025 0.018,0.051 0.026,0.077 0.017,0.06 0.035,0.121 0.043,0.173 l 0.026,0.102 c 0.009,0.026 0.009,0.061 0.018,0.087 0.077,0.594 0.111,1.016 0.111,1.274 v 2.507 c 0,0.568 -0.206,1.059 -0.611,1.472 C 1.06,-0.207 0.568,0 0,0" /></g><g
           transform="translate(76.084,9.1172)"
           id="g28"><path
             id="path30"
             style="fill:#161823;fill-opacity:1;fill-rule:nonzero;stroke:none"
             d="M 0,0 C -0.077,0 -1.981,0.018 -2.36,1.517 -2.472,1.947 -2.679,2.782 -0.361,4.083 -0.207,3.885 -0.052,3.678 0.112,3.463 0.818,2.516 1.585,1.62 2.334,0.81 1.464,0.25 0.517,0 0,0 m -0.164,11.258 0.009,0.009 c 0.173,0.267 0.482,0.464 0.93,0.499 h 0.052 0.069 0.008 c 0.999,0 1.172,-0.835 1.172,-0.982 v -0.06 c 0,-0.319 -0.078,-0.784 -1.413,-1.542 -0.835,0.939 -0.965,1.18 -0.965,1.568 -0.009,0.181 0.043,0.353 0.138,0.508 M 9.062,0.087 C 9.053,0.095 8.579,0.474 7.864,1.12 8.165,1.637 8.372,2.024 8.51,2.317 8.803,2.912 8.82,3.127 8.846,3.343 8.958,4.471 8.131,5.479 7.003,5.59 6.864,5.607 6.727,5.607 6.598,5.59 5.779,5.513 5.091,4.953 4.841,4.169 V 4.16 C 4.35,4.712 3.867,5.306 3.411,5.917 3.385,5.952 3.359,5.987 3.333,6.021 c 1.835,1.197 2.852,2.619 2.852,4.884 0,0.491 -0.086,0.991 -0.25,1.472 -0.638,1.87 -2.464,3.506 -5.082,3.506 -2.955,0 -5.272,-2.248 -5.272,-5.125 V 10.621 C -4.384,9.208 -3.842,8.2 -3.084,7.244 -5.039,5.995 -7.192,3.859 -6.348,0.509 -5.547,-2.687 -2.584,-4.117 0,-4.117 c 1.61,0 3.652,0.68 5.306,1.999 0.68,-0.604 1.136,-0.974 1.179,-1.008 0.888,-0.707 2.18,-0.568 2.886,0.318 0.715,0.888 0.577,2.18 -0.309,2.895" /></g><g
           transform="translate(4.5581,19.3711)"
           id="g32"><path
             id="path34"
             style="fill:#fe2c55;fill-opacity:1;fill-rule:nonzero;stroke:none"
             d="M 0,0 C -0.119,-0.083 -0.238,-0.162 -0.357,-0.238 -0.238,-0.162 -0.119,-0.082 0,0" /></g><g
           transform="translate(36.876,15.439)"
           id="g36"><path
             id="path38"
             style="fill:#fe2c55;fill-opacity:1;fill-rule:nonzero;stroke:none"
             d="m 0,0 c -0.174,-0.023 -0.348,-0.046 -0.523,-0.069 l -0.025,0.43 0.224,0.019 C -0.186,0.259 -0.078,0.132 0,0" /></g><g
           transform="translate(44.8823,18.5801)"
           id="g40"><path
             id="path42"
             style="fill:#fe2c55;fill-opacity:1;fill-rule:nonzero;stroke:none"
             d="m 0,0 c -0.252,-0.795 -2.841,-1.343 -3.36,-1.437 -0.011,-0.002 -0.021,-0.004 -0.029,-0.005 -0.012,-0.002 -0.021,-0.004 -0.027,-0.005 -0.004,-10e-4 -0.006,-10e-4 -0.008,-10e-4 -0.002,-0.001 -0.003,-0.001 -0.003,-0.001 -0.854,-0.138 -1.756,-0.278 -2.691,-0.416 0,0 -0.005,-0.001 -0.016,-0.002 -0.185,-0.022 -2.012,-0.236 -3.296,-0.144 -0.291,0.02 -0.708,0.081 -1.024,0.131 -0.262,0.042 -0.457,0.077 -0.457,0.077 -1.149,0.167 -2.575,0.17 -4.195,-0.061 -4.909,-0.701 -7.452,0.644 -8.828,0.706 l 0.002,0.003 c 0,0 -1.204,0.046 -2.865,-0.486 -2.16,-0.692 -4.633,-0.527 -5.829,-0.384 -0.007,10e-4 -0.014,0.002 -0.021,0.003 -3.705,0.537 -6.712,1.178 -7.873,1.666 0,0 -0.228,0.146 -0.253,0.454 -0.023,0.29 0.423,0.667 0.478,0.712 -0.009,-0.006 -0.019,-0.013 -0.029,-0.019 0.011,0.008 0.023,0.015 0.034,0.024 0.002,0.001 0.005,0.003 0.007,0.004 0.046,0.032 0.092,0.064 0.137,0.097 0.06,0.042 0.12,0.085 0.179,0.129 0.119,0.087 0.239,0.177 0.358,0.269 0.059,0.045 0.119,0.092 0.179,0.139 0.1,0.079 0.199,0.159 0.299,0.24 0.02,0.016 0.04,0.032 0.06,0.049 0.057,0.046 0.114,0.094 0.171,0.141 0.242,0.202 0.484,0.41 0.727,0.624 0.06,0.053 0.12,0.106 0.18,0.159 0.059,0.053 0.119,0.106 0.18,0.161 0.12,0.107 0.24,0.216 0.361,0.326 0.421,0.383 0.844,0.774 1.268,1.163 0.121,0.111 0.243,0.222 0.364,0.333 0.243,0.22 0.486,0.44 0.73,0.655 0.006,0.005 0.012,0.011 0.018,0.016 0.003,0.003 0.006,0.006 0.009,0.008 0.003,0.003 0.006,0.005 0.009,0.007 0.115,-0.215 0.451,-0.362 1.106,-0.431 1.836,-0.194 2.654,1.117 4.586,0.215 1.375,-0.642 1.88,-1.546 3.387,-0.946 1.186,0.473 1.1,1.569 2.603,2.015 0.725,0.215 1.521,0.48 1.747,0.848 v 0.001 h 0.001 c 0.071,-0.021 0.143,-0.042 0.215,-0.062 0.073,-0.02 0.146,-0.038 0.22,-0.056 0.05,-0.012 0.1,-0.023 0.15,-0.034 0.055,-0.012 0.111,-0.024 0.168,-0.035 0.139,-0.027 0.281,-0.05 0.428,-0.069 0.048,-0.007 0.098,-0.012 0.147,-0.018 0.066,-0.007 0.133,-0.014 0.201,-0.019 0.093,-0.007 0.188,-0.013 0.284,-0.017 0.097,-0.004 0.195,-0.006 0.295,-0.006 h 0.161 c 3.201,0.006 4.354,2.004 9.159,2.004 0.721,0 1.436,-0.174 2.158,-0.47 0.24,-0.1 0.479,-0.215 0.718,-0.342 C -7.654,7.866 -7.817,7.636 -7.719,7.16 -7.556,6.366 -6.72,5.49 -5.748,4.141 c 0,0 0.001,-0.001 0.004,-0.004 0.035,-0.042 0.321,-0.385 0.537,-0.78 0.044,-0.067 0.082,-0.134 0.114,-0.199 0,-10e-4 0,-0.002 0.002,-0.003 0.373,-0.631 1.378,-2.091 2.668,-2.113 0.216,-0.004 0.414,0.012 0.594,0.04 0.002,0 0.003,0 0.005,10e-4 h 0.002 c 0.002,0.001 0.005,0.002 0.008,0.002 0.018,0.005 0.053,0.012 0.1,0.019 0.007,0.002 0.015,0.003 0.024,0.004 h 10e-4 C -1.37,1.154 -0.599,1.212 -0.315,0.975 0.142,0.594 0.108,0.342 0,0" /></g><g
           transform="translate(47.4004,16.1938)"
           id="g44"><path
             id="path46"
             style="fill:#fe2c55;fill-opacity:1;fill-rule:nonzero;stroke:none"
             d="m 0,0 0.004,0.003 c -2.58,-3.028 -4.782,-8.508 -10.682,-11.704 -1.443,-0.78 -3.112,-1.431 -5.057,-1.87 -1.211,-0.27 -2.531,-0.47 -3.968,-0.561 -0.109,-0.006 -0.225,-0.019 -0.335,-0.019 -0.554,-0.026 -0.998,-0.039 -1.314,-0.045 -0.167,-0.006 -0.328,-0.006 -0.502,-0.006 h -0.187 c -0.109,0 -0.258,0.006 -0.444,0.006 -0.735,0.013 -1.443,0.039 -2.126,0.097 -0.084,0 -0.174,0.006 -0.258,0.019 -1.185,0.11 -2.286,0.277 -3.304,0.509 -1.881,0.419 -3.498,1.045 -4.908,1.792 -0.233,0.123 -0.46,0.25 -0.682,0.38 -0.065,0.038 -0.13,0.076 -0.194,0.115 -0.076,0.046 -0.152,0.092 -0.227,0.139 -0.056,0.035 -0.112,0.07 -0.167,0.106 -0.069,0.043 -0.137,0.088 -0.205,0.133 -0.063,0.041 -0.126,0.083 -0.188,0.125 -0.117,0.079 -0.232,0.159 -0.346,0.241 -0.052,0.037 -0.104,0.073 -0.155,0.112 -0.156,0.112 -0.309,0.228 -0.459,0.345 -0.05,0.039 -0.1,0.078 -0.149,0.117 -0.067,0.053 -0.134,0.107 -0.2,0.161 -0.08,0.065 -0.159,0.131 -0.237,0.197 -0.33,0.279 -0.646,0.566 -0.948,0.858 -0.051,0.049 -0.101,0.098 -0.151,0.147 -0.01,0.01 -0.02,0.02 -0.029,0.029 -0.065,0.064 -0.13,0.129 -0.193,0.195 -0.057,0.056 -0.112,0.113 -0.167,0.171 -0.087,0.089 -0.173,0.18 -0.257,0.271 -0.06,0.064 -0.119,0.129 -0.177,0.193 -0.055,0.06 -0.11,0.121 -0.163,0.182 -0.141,0.157 -0.278,0.315 -0.412,0.475 -0.057,0.068 -0.115,0.137 -0.172,0.207 -0.069,0.083 -0.138,0.167 -0.205,0.251 -0.05,0.06 -0.099,0.122 -0.147,0.183 -0.058,0.073 -0.115,0.145 -0.171,0.218 -0.045,0.059 -0.091,0.116 -0.135,0.174 -0.043,0.058 -0.087,0.115 -0.13,0.174 1.229,-0.429 2.346,0.414 2.188,1.754 -0.127,1.074 -1.334,2.209 -2.524,2.861 0,0 0,10e-4 -0.001,10e-4 -0.008,0.005 -0.039,0.021 -0.085,0.046 -0.232,0.132 -0.848,0.53 -0.787,1.021 0.063,0.505 0.77,0.485 1.201,0.416 0.026,-0.004 0.051,-0.009 0.075,-0.013 h 0.002 c 1.723,-0.292 3.724,-0.608 5.827,-0.897 0,0 1.291,-0.142 3.002,-0.343 0,0 0.021,-0.003 0.061,-0.007 l 0.075,-0.009 c 0.029,-0.004 0.063,-0.008 0.101,-0.012 0.021,-0.003 0.042,-0.005 0.065,-0.008 0.046,-0.006 0.097,-0.012 0.152,-0.018 1.328,-0.156 2.849,-0.343 4.195,-0.522 0.002,-10e-4 0.003,-10e-4 0.005,-10e-4 0.008,-0.001 0.015,-0.002 0.023,-0.003 2.249,-0.291 5.048,-1.113 5.817,-2.033 0.554,-0.661 0.609,-1.49 0.57,-2.03 -0.035,-0.194 -0.064,-0.38 -0.086,-0.56 v -0.002 c -0.187,-1.545 0.15,-2.57 1.625,-3.145 1.986,-0.773 3.929,0.774 3.048,2.493 -0.848,1.657 -0.029,2.81 1.318,3.586 0,0 0.005,0.003 0.015,0.009 0.208,0.119 0.428,0.229 0.656,0.33 10e-4,0 10e-4,0 0.002,0.001 0.862,0.424 2.442,1.17 4.069,1.772 2.321,0.858 3.006,1.066 4.517,1.333 0.001,10e-4 0.002,10e-4 0.003,10e-4 0.005,0.002 0.008,0.003 0.008,0.003 1.452,0.243 2.724,0.472 3.721,0.658 h 0.004 C -0.824,0.808 -0.101,0.867 0.03,0.616 0.167,0.353 0,0 0,0" /></g><g
           transform="translate(9.8291,23.917)"
           id="g48"><path
             id="path50"
             style="fill:#00caff;fill-opacity:1;fill-rule:nonzero;stroke:none"
             d="M 0,0 -0.001,-0.001 C -0.017,0.029 -0.029,0.06 -0.036,0.092 -0.027,0.06 -0.016,0.029 0,0" /></g><g
           transform="translate(23.2573,25.6172)"
           id="g52"><path
             id="path54"
             style="fill:#00caff;fill-opacity:1;fill-rule:nonzero;stroke:none"
             d="M 0,0 H 0.001 C 0.001,-0.001 0,-0.001 0,-0.001 Z" /></g><g
           transform="translate(23.3013,25.9448)"
           id="g56"><path
             id="path58"
             style="fill:#00caff;fill-opacity:1;fill-rule:nonzero;stroke:none"
             d="M 0,0 C -0.013,0.04 -0.032,0.082 -0.058,0.124 -0.031,0.082 -0.012,0.04 0,0" /></g><g
           transform="translate(33.9712,16.7769)"
           id="g60"><path
             id="path62"
             style="fill:#00caff;fill-opacity:1;fill-rule:nonzero;stroke:none"
             d="M 0,0 C 0,0 0.195,-0.035 0.457,-0.077 0.31,-0.048 0.158,-0.022 0,0" /></g><g
           transform="translate(36.876,15.439)"
           id="g64"><path
             id="path66"
             style="fill:#00caff;fill-opacity:1;fill-rule:nonzero;stroke:none"
             d="m 0,0 c -0.174,-0.023 -0.348,-0.046 -0.523,-0.069 l -0.025,0.43 0.224,0.019 C -0.186,0.259 -0.078,0.132 0,0" /></g><g
           transform="translate(37.728,26.501)"
           id="g68"><path
             id="path70"
             style="fill:#00caff;fill-opacity:1;fill-rule:nonzero;stroke:none"
             d="m 0,0 c -0.009,0 -0.018,0 -0.027,0.001 h 0.016 c 0.004,0 0.008,0 0.011,-0.001" /></g><g
           transform="translate(38.2993,26.4028)"
           id="g72"><path
             id="path74"
             style="fill:#00caff;fill-opacity:1;fill-rule:nonzero;stroke:none"
             d="M 0,0 C -0.005,0.002 -0.01,0.003 -0.015,0.004 -0.034,0.01 -0.052,0.014 -0.07,0.019 -0.047,0.014 -0.024,0.008 0,0" /></g><g
           transform="translate(38.9844,26.1519)"
           id="g76"><path
             id="path78"
             style="fill:#00caff;fill-opacity:1;fill-rule:nonzero;stroke:none"
             d="M 0,0 C -0.095,0.041 -0.188,0.079 -0.278,0.114 -0.188,0.08 -0.095,0.042 0,0" /></g><g
           transform="translate(43.5952,22.8398)"
           id="g80"><path
             id="path82"
             style="fill:#00caff;fill-opacity:1;fill-rule:nonzero;stroke:none"
             d="m 0,0 c -0.018,0.021 -0.037,0.043 -0.056,0.064 -0.026,0.029 -0.052,0.059 -0.079,0.089 0.027,-0.03 0.054,-0.06 0.08,-0.089 C -0.036,0.043 -0.018,0.021 0,0" /></g><g
           transform="translate(44.0864,22.1958)"
           id="g84"><path
             id="path86"
             style="fill:#00caff;fill-opacity:1;fill-rule:nonzero;stroke:none"
             d="M 0,0 C -0.048,0.072 -0.099,0.145 -0.155,0.221 -0.098,0.145 -0.047,0.071 0,0" /></g><g
           transform="translate(43.168,19.6841)"
           id="g88"><path
             id="path90"
             style="fill:#00caff;fill-opacity:1;fill-rule:nonzero;stroke:none"
             d="M 0,0 C -0.032,-0.007 -0.066,-0.013 -0.1,-0.019 -0.082,-0.014 -0.047,-0.007 0,0" /></g><g
           transform="translate(5.1084,13.8643)"
           id="g92"><path
             id="path94"
             style="fill:#00caff;fill-opacity:1;fill-rule:nonzero;stroke:none"
             d="M 0,0 C -0.021,0.07 -0.04,0.141 -0.055,0.21 -0.039,0.141 -0.02,0.07 0,0" /></g><g
           transform="translate(36.876,15.439)"
           id="g96"><path
             id="path98"
             style="fill:#00caff;fill-opacity:1;fill-rule:nonzero;stroke:none"
             d="m 0,0 c -0.174,-0.023 -0.348,-0.046 -0.523,-0.069 l -0.025,0.43 0.224,0.019 C -0.186,0.259 -0.078,0.132 0,0" /></g><g
           transform="translate(4.5581,19.3711)"
           id="g100"><path
             id="path102"
             style="fill:#00caff;fill-opacity:1;fill-rule:nonzero;stroke:none"
             d="M 0,0 C -0.119,-0.083 -0.238,-0.162 -0.357,-0.238 -0.238,-0.162 -0.119,-0.082 0,0" /></g><g
           transform="translate(4.5923,19.395)"
           id="g104"><path
             id="path106"
             style="fill:#00caff;fill-opacity:1;fill-rule:nonzero;stroke:none"
             d="M 0,0 V -0.001 C -0.001,-0.002 -0.003,-0.003 -0.005,-0.005 -0.014,-0.011 -0.024,-0.018 -0.034,-0.024 -0.023,-0.016 -0.011,-0.009 0,0" /></g><g
           transform="translate(5.1084,13.8643)"
           id="g108"><path
             id="path110"
             style="fill:#00caff;fill-opacity:1;fill-rule:nonzero;stroke:none"
             d="M 0,0 C -0.021,0.07 -0.04,0.141 -0.055,0.21 -0.039,0.141 -0.02,0.07 0,0" /></g><g
           transform="translate(7.3184,14.9302)"
           id="g112"><path
             id="path114"
             style="fill:#00caff;fill-opacity:1;fill-rule:nonzero;stroke:none"
             d="m 0,0 -0.001,-0.001 c 0,0 0,0.001 -0.001,0.001 z" /></g><g
           transform="translate(36.876,15.439)"
           id="g116"><path
             id="path118"
             style="fill:#00caff;fill-opacity:1;fill-rule:nonzero;stroke:none"
             d="m 0,0 c -0.174,-0.023 -0.348,-0.046 -0.523,-0.069 l -0.025,0.43 0.224,0.019 C -0.186,0.259 -0.078,0.132 0,0" /></g><g
           transform="translate(9.8491,24.4009)"
           id="g120"><path
             id="path122"
             style="fill:#161823;fill-opacity:1;fill-rule:nonzero;stroke:none"
             d="m 0,0 c -0.007,-0.017 -0.013,-0.034 -0.019,-0.051 0.006,0.017 0.013,0.034 0.02,0.051 z m 34.082,-1.984 c 0.056,-0.076 0.107,-0.149 0.155,-0.221 -0.047,0.071 -0.098,0.145 -0.155,0.221 m -0.391,0.487 c -0.026,0.029 -0.053,0.059 -0.08,0.089 0.027,-0.03 0.053,-0.06 0.079,-0.089 0.019,-0.021 0.038,-0.043 0.056,-0.064 -0.018,0.021 -0.036,0.043 -0.055,0.064 M 28.857,1.865 C 28.947,1.83 29.04,1.792 29.135,1.751 29.04,1.793 28.947,1.831 28.857,1.865 M 28.38,2.021 C 28.398,2.016 28.416,2.012 28.435,2.006 28.44,2.005 28.445,2.004 28.45,2.002 28.426,2.01 28.403,2.016 28.38,2.021 m -0.512,0.08 H 27.852 C 27.861,2.1 27.87,2.1 27.879,2.1 27.876,2.101 27.872,2.101 27.868,2.101 M 13.394,1.668 C 13.42,1.626 13.439,1.584 13.452,1.544 13.44,1.584 13.421,1.626 13.394,1.668 M 13.409,1.216 H 13.408 V 1.215 C 13.48,1.194 13.552,1.173 13.624,1.154 13.552,1.174 13.48,1.195 13.409,1.216 M 0,0 c -0.007,-0.017 -0.013,-0.034 -0.019,-0.051 0.006,0.017 0.013,0.034 0.02,0.051 z m -0.056,-0.392 c 0.007,-0.032 0.019,-0.063 0.035,-0.093 l 0.001,0.001 c -0.016,0.029 -0.027,0.06 -0.036,0.092 m -4.878,-4.384 c 0.119,0.087 0.239,0.176 0.358,0.269 -0.119,-0.092 -0.239,-0.182 -0.358,-0.269 m 0.138,-5.551 c 0.015,-0.069 0.034,-0.139 0.055,-0.21 -0.02,0.071 -0.039,0.141 -0.055,0.21 m -0.461,5.321 c -0.011,-0.009 -0.023,-0.016 -0.034,-0.024 0.01,0.006 0.02,0.013 0.029,0.019 0.002,0.002 0.004,0.003 0.005,0.004 0.003,0.002 0.005,0.004 0.007,0.005 -0.002,-0.001 -0.005,-0.003 -0.007,-0.004 m -0.391,-0.262 c 0.119,0.076 0.238,0.155 0.357,0.238 -0.119,-0.082 -0.238,-0.162 -0.357,-0.238 M 0,0 c -0.007,-0.017 -0.013,-0.034 -0.019,-0.051 0.006,0.017 0.013,0.034 0.02,0.051 z" /></g><g
           transform="translate(48.7051,17.9292)"
           id="g124"><path
             id="path126"
             style="fill:#161823;fill-opacity:1;fill-rule:nonzero;stroke:none"
             d="m 0,0 c -0.001,-0.228 -0.188,-0.58 -0.711,-1.092 -0.2,-0.198 -0.396,-0.412 -0.59,-0.64 -2.58,-3.028 -4.782,-8.509 -10.682,-11.704 -1.443,-0.78 -3.112,-1.432 -5.057,-1.87 -1.211,-0.271 -2.531,-0.47 -3.968,-0.562 -0.109,-0.006 -0.225,-0.018 -0.335,-0.018 -0.554,-0.027 -0.998,-0.039 -1.314,-0.045 -0.167,-0.006 -0.328,-0.006 -0.502,-0.006 h -0.187 c -0.109,0 -0.258,0.006 -0.444,0.006 -0.735,0.013 -1.443,0.039 -2.126,0.097 -0.084,0 -0.174,0.005 -0.258,0.019 -1.185,0.109 -2.286,0.276 -3.304,0.509 -1.881,0.419 -3.498,1.045 -4.908,1.792 -0.233,0.123 -0.46,0.25 -0.682,0.38 -0.065,0.038 -0.13,0.076 -0.194,0.115 -0.076,0.046 -0.152,0.092 -0.227,0.139 -0.056,0.035 -0.112,0.07 -0.167,0.106 -0.069,0.043 -0.137,0.088 -0.205,0.133 -0.063,0.041 -0.126,0.083 -0.188,0.125 -0.117,0.079 -0.232,0.159 -0.346,0.241 -0.052,0.036 -0.104,0.072 -0.155,0.111 -0.156,0.113 -0.309,0.229 -0.459,0.346 -0.05,0.038 -0.1,0.077 -0.149,0.116 -0.067,0.054 -0.134,0.108 -0.2,0.161 -0.08,0.066 -0.159,0.131 -0.237,0.198 -0.33,0.279 -0.646,0.566 -0.948,0.858 -0.051,0.049 -0.101,0.098 -0.151,0.147 -0.01,0.009 -0.02,0.019 -0.029,0.029 -0.065,0.063 -0.13,0.129 -0.193,0.194 -0.057,0.057 -0.112,0.114 -0.167,0.171 -0.087,0.09 -0.173,0.181 -0.257,0.272 -0.06,0.064 -0.119,0.129 -0.177,0.193 -0.056,0.06 -0.11,0.121 -0.163,0.182 -0.141,0.157 -0.278,0.315 -0.412,0.474 -0.058,0.069 -0.116,0.138 -0.172,0.207 -0.069,0.083 -0.138,0.167 -0.205,0.251 -0.05,0.061 -0.099,0.122 -0.147,0.184 -0.058,0.073 -0.115,0.144 -0.171,0.218 -0.045,0.058 -0.091,0.116 -0.135,0.173 -0.044,0.059 -0.088,0.117 -0.132,0.175 l -10e-4,0.001 c -0.023,0.008 -0.045,0.016 -0.068,0.025 -0.023,0.008 -0.045,0.018 -0.068,0.028 -0.045,0.019 -0.091,0.04 -0.136,0.062 -0.023,0.012 -0.046,0.024 -0.068,0.036 -0.023,0.012 -0.046,0.025 -0.069,0.039 -0.016,0.008 -0.032,0.019 -0.049,0.029 -0.026,0.016 -0.053,0.033 -0.08,0.05 -0.026,0.017 -0.052,0.035 -0.077,0.053 -0.004,0.002 -0.008,0.005 -0.012,0.007 -0.016,0.013 -0.031,0.024 -0.047,0.035 -10e-4,0.001 -0.002,0.001 -0.003,0.003 -0.028,0.021 -0.055,0.041 -0.083,0.064 -0.064,0.051 -0.127,0.105 -0.19,0.166 -0.018,0.017 -0.037,0.035 -0.055,0.052 l -0.005,0.005 c -0.024,0.024 -0.049,0.048 -0.073,0.074 -0.065,0.067 -0.135,0.152 -0.207,0.25 -0.007,0.008 -0.013,0.015 -0.018,0.024 -0.006,0.008 -0.012,0.016 -0.018,0.024 -0.019,0.026 -0.039,0.053 -0.058,0.082 -0.022,0.031 -0.044,0.063 -0.065,0.095 -0.024,0.036 -0.047,0.072 -0.07,0.109 -0.017,0.026 -0.033,0.052 -0.05,0.079 -0.182,0.295 -0.37,0.643 -0.538,1.01 -0.031,0.067 -0.061,0.133 -0.09,0.202 -0.02,0.045 -0.039,0.09 -0.058,0.135 -0.018,0.045 -0.037,0.09 -0.055,0.136 -0.023,0.056 -0.044,0.113 -0.065,0.17 -0.021,0.056 -0.042,0.112 -0.061,0.169 -0.004,0.015 -0.009,0.028 -0.014,0.043 -0.034,0.098 -0.063,0.193 -0.091,0.289 0,0.001 -0.001,0.003 -0.001,0.004 -0.021,0.07 -0.04,0.141 -0.055,0.21 0,10e-4 -10e-4,10e-4 -10e-4,0.002 v 0.001 c 0,0 -0.001,10e-4 -0.001,0.002 -0.101,0.149 -0.202,0.297 -0.302,0.441 -0.034,0.048 -0.068,0.096 -0.101,0.144 -0.045,0.064 -0.09,0.128 -0.134,0.191 -0.086,0.121 -0.172,0.241 -0.259,0.359 -0.136,0.186 -0.272,0.366 -0.409,0.54 -0.041,0.053 -0.082,0.105 -0.124,0.156 -0.048,0.059 -0.096,0.118 -0.145,0.176 -0.045,0.054 -0.09,0.107 -0.135,0.16 -0.181,0.21 -0.364,0.407 -0.55,0.591 -0.518,0.51 -0.706,0.862 -0.708,1.09 -10e-4,0.166 0.097,0.266 0.238,0.315 0.059,0.02 0.118,0.041 0.178,0.064 0.055,0.02 0.11,0.042 0.165,0.064 0.064,0.026 0.128,0.054 0.192,0.082 0.05,0.022 0.1,0.045 0.151,0.069 0.009,0.004 0.017,0.008 0.025,0.012 0.059,0.028 0.118,0.057 0.177,0.087 0.048,0.024 0.095,0.048 0.142,0.073 0.018,0.009 0.035,0.019 0.053,0.028 0.054,0.029 0.108,0.059 0.161,0.089 0.005,0.003 0.01,0.005 0.015,0.008 0.055,0.031 0.109,0.063 0.163,0.095 0.06,0.035 0.119,0.071 0.179,0.108 0.059,0.036 0.118,0.074 0.178,0.112 0.119,0.076 0.238,0.156 0.357,0.238 0.011,0.008 0.023,0.015 0.034,0.024 0.002,0.001 0.005,0.003 0.007,0.004 0.046,0.032 0.092,0.064 0.137,0.097 0.06,0.042 0.12,0.085 0.179,0.129 0.119,0.087 0.239,0.177 0.358,0.269 0.059,0.045 0.119,0.092 0.179,0.139 0.1,0.079 0.199,0.159 0.299,0.24 0.02,0.016 0.04,0.032 0.06,0.049 0.057,0.046 0.114,0.094 0.171,0.141 0.242,0.202 0.484,0.41 0.727,0.624 0.06,0.053 0.12,0.106 0.18,0.159 0.059,0.053 0.119,0.106 0.18,0.161 0.12,0.107 0.24,0.216 0.361,0.326 0.421,0.383 0.844,0.774 1.268,1.163 0.121,0.111 0.243,0.222 0.364,0.333 0.243,0.22 0.486,0.44 0.73,0.655 0.006,0.005 0.012,0.011 0.018,0.016 0.003,0.003 0.006,0.006 0.009,0.008 0.003,0.003 0.006,0.005 0.009,0.008 -0.016,0.03 -0.028,0.061 -0.035,0.093 10e-4,0 0,0.002 0,0.002 -0.02,0.087 -0.012,0.183 0.02,0.289 0.005,0.016 0.011,0.033 0.017,0.05 0.006,0.017 0.012,0.034 0.019,0.051 h 0.001 v 10e-4 c 0.015,0.034 0.031,0.07 0.05,0.106 l 10e-4,0.001 c 0.015,0.029 0.031,0.059 0.048,0.089 0,0 10e-4,0 10e-4,0.001 0.027,0.045 0.055,0.091 0.086,0.139 0,0 10e-4,0 10e-4,10e-4 0.021,0.031 0.043,0.063 0.065,0.096 0,0 0.001,0 0.001,0.001 0.035,0.049 0.071,0.099 0.11,0.15 0.013,0.018 0.026,0.035 0.04,0.053 0.021,0.027 0.042,0.054 0.064,0.082 0.034,0.043 0.069,0.087 0.105,0.132 0.045,0.055 0.09,0.111 0.137,0.168 0.063,0.076 0.128,0.154 0.194,0.233 0.861,1.031 2.577,2.084 4.939,2.299 0.414,0.038 0.819,0.056 1.218,0.056 0.279,0 0.554,-0.009 0.825,-0.027 0.109,-0.007 0.217,-0.015 0.324,-0.025 0.215,-0.02 0.428,-0.046 0.64,-0.076 0.158,-0.023 0.315,-0.049 0.471,-0.079 0.104,-0.019 0.208,-0.04 0.311,-0.062 0.103,-0.022 0.206,-0.046 0.308,-0.07 0.102,-0.025 0.204,-0.051 0.305,-0.078 0.101,-0.028 0.202,-0.056 0.303,-0.086 0.073,-0.022 0.145,-0.044 0.218,-0.067 0.055,-0.017 0.109,-0.035 0.164,-0.054 0.072,-0.023 0.144,-0.048 0.216,-0.073 0.099,-0.035 0.197,-0.071 0.295,-0.109 h 10e-4 c 0.098,-0.037 0.196,-0.076 0.293,-0.115 0.097,-0.04 0.194,-0.081 0.291,-0.123 0.375,-0.164 0.667,-0.316 0.886,-0.459 0.051,-0.032 0.097,-0.064 0.14,-0.096 0.082,-0.06 0.151,-0.119 0.207,-0.176 0.023,-0.022 0.044,-0.045 0.063,-0.067 0.006,-0.007 0.011,-0.013 0.016,-0.02 0.006,-0.007 0.011,-0.014 0.015,-0.02 0.003,-0.002 0.004,-0.004 0.005,-0.005 0.001,-0.002 0.002,-0.003 0.003,-0.004 V 8.188 c 0.006,-0.008 0.012,-0.016 0.017,-0.024 0.006,-0.008 0.011,-0.016 0.016,-0.024 0.027,-0.042 0.046,-0.084 0.058,-0.124 0.016,-0.051 0.022,-0.099 0.018,-0.147 C -25.387,7.86 -25.388,7.851 -25.389,7.842 -25.39,7.833 -25.392,7.825 -25.394,7.816 -25.396,7.807 -25.398,7.799 -25.401,7.79 V 7.788 c -0.003,-0.008 -0.006,-0.016 -0.009,-0.025 -0.003,-0.008 -0.007,-0.017 -0.011,-0.025 -0.004,-0.009 -0.008,-0.017 -0.013,-0.026 -0.004,-0.008 -0.008,-0.016 -0.013,-0.024 0.071,-0.021 0.143,-0.042 0.215,-0.062 0.073,-0.02 0.146,-0.038 0.22,-0.056 0.05,-0.012 0.1,-0.023 0.15,-0.034 0.055,-0.012 0.111,-0.024 0.168,-0.035 0.139,-0.027 0.281,-0.05 0.428,-0.069 0.048,-0.007 0.098,-0.012 0.147,-0.018 0.066,-0.007 0.133,-0.014 0.201,-0.019 0.093,-0.007 0.188,-0.013 0.284,-0.017 0.097,-0.004 0.195,-0.006 0.295,-0.006 h 0.161 c 3.201,0.006 4.354,2.004 9.159,2.004 0.721,0 1.436,-0.174 2.158,-0.47 0.24,-0.1 0.479,-0.215 0.718,-0.342 h 0.001 c 0.022,0.003 0.045,0.005 0.068,0.007 0.014,10e-4 0.028,10e-4 0.042,10e-4 0.009,0.001 0.019,0.001 0.028,0.001 h 0.016 c 0.004,0 0.008,0 0.011,-0.001 0.018,0 0.037,-10e-4 0.055,-0.002 0.014,-10e-4 0.027,-0.002 0.04,-0.003 0.025,-0.002 0.051,-0.005 0.077,-0.008 0.011,-10e-4 0.023,-0.003 0.035,-0.005 0.029,-0.004 0.058,-0.009 0.087,-0.014 0.004,-10e-4 0.009,-0.002 0.013,-0.002 0.038,-0.008 0.076,-0.015 0.116,-0.025 0.008,-0.002 0.015,-0.004 0.023,-0.006 0.018,-0.005 0.036,-0.009 0.055,-0.014 0.023,-0.005 0.046,-0.011 0.07,-0.019 0.026,-0.007 0.052,-0.014 0.078,-0.023 0.014,-0.004 0.029,-0.009 0.044,-0.014 0.002,0 0.003,-10e-4 0.004,-10e-4 0.046,-0.014 0.092,-0.03 0.138,-0.046 0.047,-0.017 0.094,-0.034 0.143,-0.053 0.09,-0.034 0.183,-0.072 0.278,-0.114 C -9.666,8.199 -9.61,8.174 -9.553,8.148 -9.545,8.144 -9.537,8.14 -9.529,8.137 -9.488,8.118 -9.448,8.098 -9.406,8.079 -9.344,8.05 -9.282,8.019 -9.219,7.986 -9.156,7.954 -9.092,7.92 -9.028,7.887 -8.994,7.869 -8.959,7.85 -8.925,7.832 -8.856,7.795 -8.787,7.757 -8.717,7.717 -8.664,7.688 -8.612,7.658 -8.56,7.627 -8.507,7.596 -8.454,7.566 -8.402,7.534 -8.261,7.45 -8.12,7.362 -7.978,7.272 -7.914,7.231 -7.85,7.189 -7.786,7.147 c 0.006,-0.004 0.013,-0.008 0.02,-0.013 0.061,-0.041 0.123,-0.082 0.184,-0.123 0.068,-0.046 0.136,-0.093 0.203,-0.14 0.115,-0.08 0.229,-0.162 0.341,-0.244 0.035,-0.025 0.069,-0.05 0.102,-0.075 0.05,-0.038 0.1,-0.075 0.149,-0.113 C -6.274,6.048 -5.804,5.644 -5.433,5.264 -5.421,5.251 -5.408,5.239 -5.397,5.226 -5.373,5.202 -5.35,5.178 -5.329,5.155 -5.3,5.124 -5.272,5.094 -5.245,5.064 -5.218,5.034 -5.191,5.004 -5.165,4.975 -5.146,4.954 -5.128,4.932 -5.11,4.911 -5.092,4.89 -5.074,4.869 -5.057,4.848 -5.045,4.834 -5.034,4.82 -5.022,4.806 -4.976,4.751 -4.933,4.697 -4.892,4.644 -4.85,4.591 -4.811,4.54 -4.774,4.489 V 4.488 C -4.717,4.412 -4.666,4.338 -4.619,4.267 -4.587,4.219 -4.557,4.172 -4.53,4.126 V 4.125 C -4.501,4.079 -4.475,4.034 -4.451,3.99 V 3.989 c 0.018,-0.033 0.035,-0.065 0.052,-0.098 0.016,-0.032 0.032,-0.063 0.047,-0.095 0.016,-0.035 0.031,-0.07 0.046,-0.105 0.003,-0.006 0.005,-0.013 0.008,-0.019 0.012,-0.03 0.024,-0.06 0.034,-0.089 0.011,-0.03 0.021,-0.06 0.031,-0.089 10e-4,-0.006 0.003,-0.011 0.005,-0.016 0.016,-0.052 0.03,-0.102 0.041,-0.151 0.011,-0.05 0.021,-0.098 0.028,-0.146 0.008,-0.047 0.013,-0.094 0.016,-0.139 0.005,-0.073 0.006,-0.144 0.003,-0.213 0.082,-0.07 0.164,-0.14 0.246,-0.209 0.223,-0.188 0.446,-0.37 0.669,-0.544 0.047,-0.038 0.094,-0.075 0.142,-0.111 0.06,-0.046 0.119,-0.091 0.178,-0.136 0.079,-0.059 0.157,-0.117 0.236,-0.174 0.071,-0.052 0.142,-0.103 0.214,-0.153 0.089,-0.062 0.177,-0.123 0.265,-0.181 0.059,-0.04 0.118,-0.079 0.178,-0.117 0.119,-0.076 0.238,-0.15 0.356,-0.22 0.059,-0.035 0.119,-0.069 0.178,-0.103 0.119,-0.067 0.238,-0.13 0.356,-0.19 0.046,-0.024 0.093,-0.047 0.14,-0.069 0.057,-0.028 0.114,-0.055 0.171,-0.08 0.03,-0.014 0.06,-0.027 0.091,-0.04 0.105,-0.046 0.21,-0.089 0.315,-0.128 0.056,-0.021 0.113,-0.042 0.17,-0.061 C -0.097,0.265 0,0.165 0,0.001 Z M 0.423,2.192 0.415,2.195 0.407,2.198 c -0.893,0.304 -1.881,1.015 -2.68,1.664 -0.261,1.017 -0.887,1.84 -1.392,2.42 -0.758,0.871 -2.014,1.896 -3.36,2.743 -1.444,0.908 -2.662,1.419 -3.627,1.52 -0.15,0.072 -0.298,0.138 -0.444,0.199 l -0.005,0.002 -0.004,0.002 c -1.015,0.417 -1.968,0.619 -2.914,0.619 -3.027,0 -4.842,-0.716 -6.301,-1.292 -1.046,-0.412 -1.802,-0.71 -2.862,-0.712 h -0.157 c -0.195,0 -0.383,0.01 -0.57,0.031 -0.519,0.69 -1.343,1.126 -2.127,1.467 -1.868,0.815 -3.752,1.21 -5.759,1.21 -0.459,0 -0.929,-0.021 -1.398,-0.064 -2.56,-0.233 -4.91,-1.357 -6.286,-3.006 L -39.484,8.995 C -39.838,8.571 -40.172,8.171 -40.426,7.753 -40.6,7.468 -40.718,7.197 -40.794,6.943 -41.127,6.642 -41.456,6.339 -41.779,6.042 -43.553,4.409 -45.388,2.721 -46.924,2.198 L -46.93,2.196 -46.936,2.194 c -0.964,-0.335 -1.582,-1.203 -1.574,-2.212 0.009,-1.094 0.747,-1.946 1.301,-2.493 0.581,-0.573 1.169,-1.378 1.726,-2.191 0.387,-1.293 1.197,-2.821 1.909,-3.563 0.381,-0.398 0.798,-0.717 1.244,-0.956 1.416,-1.821 3.623,-4.262 7.015,-6.054 1.662,-0.88 3.479,-1.545 5.399,-1.974 1.068,-0.242 2.249,-0.426 3.512,-0.544 0.127,-0.017 0.259,-0.028 0.389,-0.031 0.628,-0.052 1.327,-0.083 2.19,-0.098 h 0.035 c 0.089,0 0.168,-0.002 0.236,-0.004 0.078,-0.001 0.148,-0.003 0.208,-0.003 h 0.187 c 0.178,0 0.361,0 0.56,0.008 0.409,0.007 0.85,0.023 1.312,0.044 0.127,0.002 0.238,0.011 0.323,0.017 0.024,0.002 0.049,0.004 0.073,0.006 h 0.008 c 1.451,0.091 2.889,0.295 4.277,0.604 1.999,0.452 3.872,1.145 5.568,2.062 4.694,2.542 7.213,6.318 9.237,9.355 0.907,1.359 1.69,2.534 2.485,3.322 0.561,0.549 1.302,1.404 1.305,2.505 V 0 c 0,0.998 -0.614,1.859 -1.566,2.192" /></g><g
           transform="translate(36.353,15.3701)"
           id="g128"><path
             id="path130"
             style="fill:#00caff;fill-opacity:1;fill-rule:nonzero;stroke:none"
             d="M 0,0 -0.025,0.43 0.199,0.449 C 0.337,0.328 0.445,0.201 0.523,0.069 0.349,0.046 0.175,0.023 0,0 m 12.117,2.872 c -0.057,0.019 -0.114,0.04 -0.17,0.061 -0.105,0.039 -0.21,0.082 -0.315,0.128 -0.031,0.013 -0.061,0.026 -0.091,0.04 C 11.484,3.126 11.427,3.153 11.37,3.181 11.323,3.203 11.276,3.226 11.23,3.25 11.112,3.31 10.993,3.373 10.874,3.44 10.815,3.474 10.755,3.508 10.696,3.543 10.578,3.613 10.459,3.687 10.34,3.763 10.28,3.801 10.221,3.84 10.162,3.88 10.074,3.938 9.986,3.999 9.897,4.061 9.825,4.111 9.754,4.162 9.683,4.214 9.605,4.27 9.526,4.328 9.447,4.388 9.388,4.433 9.329,4.478 9.269,4.524 9.221,4.56 9.174,4.597 9.127,4.635 8.904,4.809 8.681,4.991 8.458,5.179 8.376,5.247 8.294,5.317 8.212,5.388 8.215,5.457 8.214,5.528 8.209,5.601 8.206,5.646 8.201,5.693 8.193,5.74 8.186,5.788 8.176,5.836 8.165,5.886 8.154,5.935 8.14,5.985 8.124,6.037 8.122,6.042 8.12,6.047 8.119,6.053 8.109,6.082 8.099,6.112 8.088,6.142 8.078,6.171 8.066,6.201 8.054,6.231 8.051,6.237 8.049,6.244 8.046,6.25 8.031,6.285 8.016,6.32 8,6.355 7.985,6.387 7.969,6.418 7.953,6.45 7.936,6.483 7.919,6.515 7.901,6.548 V 6.549 C 7.877,6.593 7.851,6.638 7.822,6.684 V 6.685 C 7.795,6.731 7.765,6.778 7.733,6.826 7.685,6.898 7.634,6.971 7.578,7.047 V 7.048 C 7.541,7.099 7.502,7.15 7.46,7.203 7.419,7.256 7.376,7.31 7.33,7.365 7.318,7.379 7.307,7.393 7.295,7.407 7.278,7.428 7.26,7.449 7.242,7.47 7.224,7.491 7.205,7.513 7.186,7.534 7.16,7.563 7.134,7.593 7.107,7.623 7.08,7.653 7.052,7.683 7.023,7.714 7.002,7.737 6.979,7.761 6.955,7.785 6.944,7.798 6.931,7.81 6.919,7.823 6.548,8.203 6.078,8.607 5.565,8.998 5.516,9.036 5.466,9.073 5.416,9.111 5.383,9.136 5.349,9.161 5.314,9.186 5.202,9.268 5.088,9.35 4.973,9.43 4.906,9.477 4.838,9.524 4.77,9.57 4.709,9.611 4.647,9.652 4.586,9.693 4.579,9.698 4.572,9.702 4.566,9.706 4.502,9.748 4.438,9.79 4.374,9.831 4.232,9.921 4.091,10.009 3.95,10.093 3.898,10.125 3.845,10.155 3.792,10.186 3.74,10.217 3.688,10.247 3.635,10.276 3.565,10.316 3.496,10.354 3.427,10.391 3.393,10.409 3.358,10.428 3.324,10.446 3.26,10.479 3.196,10.513 3.133,10.545 3.07,10.577 3.008,10.608 2.946,10.638 2.904,10.657 2.864,10.677 2.823,10.696 2.815,10.699 2.807,10.703 2.799,10.707 2.742,10.733 2.686,10.758 2.631,10.782 2.536,10.823 2.443,10.861 2.353,10.896 2.304,10.915 2.257,10.932 2.21,10.949 c -0.046,0.016 -0.092,0.032 -0.138,0.046 -10e-4,0 -0.002,0.001 -0.004,0.001 -0.015,0.005 -0.03,0.01 -0.044,0.014 -0.026,0.009 -0.052,0.016 -0.078,0.023 -0.005,0.002 -0.01,0.003 -0.015,0.004 -0.019,0.006 -0.037,0.01 -0.055,0.015 -0.019,0.005 -0.037,0.009 -0.055,0.014 -0.008,0.002 -0.015,0.004 -0.023,0.006 -0.04,0.01 -0.078,0.017 -0.116,0.025 -0.004,0 -0.009,0.001 -0.013,0.002 -0.029,0.005 -0.058,0.01 -0.087,0.014 -0.012,0.002 -0.024,0.004 -0.035,0.005 -0.026,0.003 -0.052,0.006 -0.077,0.008 -0.013,0.001 -0.026,0.002 -0.04,0.003 -0.018,0.001 -0.037,0.002 -0.055,0.002 -0.009,0 -0.018,0 -0.027,10e-4 -0.009,0 -0.019,0 -0.028,-10e-4 -0.014,0 -0.028,0 -0.042,-10e-4 C 1.255,11.128 1.232,11.126 1.21,11.123 H 1.209 C 0.875,11.076 0.712,10.846 0.81,10.37 0.973,9.576 1.809,8.7 2.781,7.351 c 0,0 10e-4,-0.001 0.004,-0.004 C 2.82,7.305 3.106,6.962 3.322,6.567 3.366,6.5 3.404,6.433 3.436,6.368 c 0,-0.001 0,-0.002 0.002,-0.003 C 3.811,5.734 4.816,4.274 6.106,4.252 6.322,4.248 6.52,4.264 6.7,4.292 c 0.002,0 0.003,0 0.005,0.001 H 6.707 C 6.709,4.294 6.712,4.295 6.715,4.295 6.733,4.3 6.768,4.307 6.815,4.314 6.822,4.316 6.83,4.317 6.839,4.318 H 6.84 C 7.159,4.364 7.93,4.422 8.214,4.185 8.671,3.804 8.637,3.552 8.529,3.21 8.277,2.415 5.688,1.867 5.169,1.773 5.158,1.771 5.148,1.769 5.14,1.768 5.128,1.766 5.119,1.764 5.113,1.763 5.109,1.762 5.107,1.762 5.105,1.762 5.103,1.761 5.102,1.761 5.102,1.761 4.248,1.623 3.346,1.483 2.411,1.345 2.411,1.345 2.406,1.344 2.395,1.343 2.21,1.321 0.383,1.107 -0.901,1.199 -1.192,1.219 -1.609,1.28 -1.925,1.33 -2.187,1.372 -2.382,1.407 -2.382,1.407 -3.531,1.574 -4.957,1.577 -6.577,1.346 -11.486,0.645 -14.029,1.99 -15.405,2.052 l 0.002,0.003 c 0,0 -1.204,0.046 -2.865,-0.486 -2.16,-0.692 -4.633,-0.527 -5.829,-0.384 -0.007,10e-4 -0.014,0.002 -0.021,0.003 -3.705,0.537 -6.712,1.178 -7.873,1.666 0,0 -0.228,0.146 -0.253,0.454 -0.023,0.29 0.423,0.667 0.478,0.712 C -31.775,4.014 -31.785,4.007 -31.795,4.001 -31.914,3.918 -32.033,3.839 -32.152,3.763 -32.212,3.725 -32.271,3.687 -32.33,3.651 -32.39,3.614 -32.449,3.578 -32.509,3.543 -32.563,3.511 -32.617,3.479 -32.672,3.448 -32.677,3.445 -32.682,3.443 -32.687,3.44 -32.74,3.41 -32.794,3.38 -32.848,3.351 -32.866,3.342 -32.883,3.332 -32.901,3.323 -32.948,3.298 -32.995,3.274 -33.043,3.25 -33.102,3.22 -33.161,3.191 -33.22,3.163 -33.228,3.159 -33.236,3.155 -33.245,3.151 -33.296,3.127 -33.346,3.104 -33.396,3.082 -33.46,3.054 -33.524,3.026 -33.588,3 c -0.055,-0.022 -0.11,-0.044 -0.165,-0.064 -0.06,-0.023 -0.119,-0.044 -0.178,-0.064 -0.141,-0.049 -0.239,-0.149 -0.238,-0.315 0.002,-0.228 0.19,-0.58 0.708,-1.09 0.186,-0.184 0.369,-0.381 0.55,-0.591 0.045,-0.053 0.09,-0.106 0.135,-0.16 0.049,-0.058 0.097,-0.117 0.145,-0.176 0.042,-0.051 0.083,-0.103 0.124,-0.156 0.137,-0.174 0.273,-0.354 0.409,-0.54 0.087,-0.118 0.173,-0.238 0.259,-0.359 0.044,-0.063 0.089,-0.127 0.134,-0.191 0.033,-0.048 0.067,-0.096 0.101,-0.144 0.1,-0.144 0.201,-0.292 0.302,-0.441 0,-0.001 0.001,-0.002 0.001,-0.002 v -0.001 c 0,-10e-4 10e-4,-10e-4 10e-4,-0.002 0.016,-0.069 0.035,-0.14 0.055,-0.21 0,-10e-4 0.001,-0.003 0.001,-0.004 0.028,-0.095 0.057,-0.191 0.091,-0.289 0.005,-0.014 0.01,-0.028 0.014,-0.043 0.019,-0.056 0.04,-0.113 0.061,-0.169 0.021,-0.057 0.042,-0.114 0.065,-0.17 0.018,-0.046 0.037,-0.09 0.055,-0.136 0.019,-0.045 0.038,-0.09 0.058,-0.135 0.029,-0.069 0.059,-0.135 0.09,-0.202 0.168,-0.367 0.356,-0.715 0.538,-1.01 0.017,-0.027 0.033,-0.053 0.05,-0.079 0.023,-0.037 0.046,-0.073 0.07,-0.109 0.021,-0.032 0.043,-0.064 0.065,-0.095 0.019,-0.029 0.039,-0.056 0.058,-0.082 0.006,-0.008 0.012,-0.016 0.018,-0.024 0.005,-0.009 0.011,-0.016 0.018,-0.024 0.072,-0.098 0.142,-0.183 0.207,-0.25 0.024,-0.026 0.049,-0.05 0.073,-0.074 l 0.005,-0.005 c 0.018,-0.017 0.037,-0.035 0.055,-0.052 0.063,-0.061 0.126,-0.115 0.19,-0.166 0.028,-0.022 0.055,-0.043 0.083,-0.063 10e-4,-0.002 0.002,-0.002 0.003,-0.003 0.016,-0.012 0.031,-0.023 0.047,-0.036 0.004,-0.002 0.008,-0.004 0.012,-0.007 0.025,-0.018 0.051,-0.036 0.077,-0.053 0.027,-0.017 0.054,-0.034 0.08,-0.05 0.017,-0.01 0.033,-0.02 0.049,-0.029 0.023,-0.014 0.046,-0.027 0.069,-0.039 0.022,-0.012 0.045,-0.024 0.068,-0.035 0.045,-0.023 0.091,-0.044 0.136,-0.063 0.023,-0.01 0.045,-0.019 0.068,-0.028 0.023,-0.009 0.045,-0.017 0.068,-0.025 l 10e-4,-0.001 c 0,0 0.001,-0.001 0.002,-0.001 1.229,-0.428 2.346,0.414 2.188,1.754 -0.127,1.074 -1.334,2.21 -2.524,2.862 0,0 0,0.001 -10e-4,0.001 -0.008,0.005 -0.039,0.021 -0.085,0.046 -0.232,0.132 -0.848,0.53 -0.787,1.021 0.063,0.505 0.77,0.485 1.201,0.416 0.026,-0.004 0.051,-0.009 0.075,-0.013 h 0.002 c 1.723,-0.292 3.724,-0.608 5.827,-0.897 0,0 1.291,-0.142 3.002,-0.343 0,0 0.021,-0.003 0.061,-0.007 l 0.075,-0.009 c 0.029,-0.004 0.063,-0.008 0.101,-0.012 0.021,-0.003 0.042,-0.005 0.065,-0.008 0.046,-0.006 0.097,-0.012 0.152,-0.018 1.328,-0.156 2.849,-0.343 4.195,-0.522 0.002,-0.001 0.003,-0.001 0.005,-0.001 0.008,-0.001 0.015,-0.002 0.023,-0.003 2.249,-0.291 5.048,-1.113 5.817,-2.033 0.554,-0.661 0.609,-1.49 0.57,-2.031 -0.035,-0.193 -0.064,-0.379 -0.086,-0.559 v -0.002 c -0.187,-1.545 0.15,-2.57 1.625,-3.146 1.986,-0.772 3.929,0.775 3.048,2.494 -0.848,1.657 -0.029,2.81 1.318,3.586 0,0 0.005,0.002 0.015,0.008 0.208,0.119 0.428,0.23 0.656,0.33 10e-4,0 10e-4,0 0.002,10e-4 0.862,0.425 2.442,1.171 4.069,1.773 2.321,0.858 3.006,1.066 4.517,1.333 10e-4,0.001 0.002,0.001 0.003,0.001 0.005,0.002 0.008,0.003 0.008,0.003 1.452,0.243 2.724,0.472 3.721,0.658 h 0.004 c 0.061,0.006 0.784,0.065 0.915,-0.186 0.137,-0.263 -0.03,-0.616 -0.03,-0.616 l 0.004,0.003 c 0.194,0.228 0.39,0.442 0.59,0.64 0.523,0.512 0.71,0.864 0.711,1.092 V 2.56 c 0,0.164 -0.097,0.264 -0.235,0.312" /></g><g
           transform="translate(23.3193,25.7979)"
           id="g132"><path
             id="path134"
             style="fill:#00caff;fill-opacity:1;fill-rule:nonzero;stroke:none"
             d="M 0,0 C -0.001,-0.009 -0.002,-0.018 -0.003,-0.027 -0.004,-0.036 -0.006,-0.044 -0.008,-0.053 -0.01,-0.062 -0.012,-0.07 -0.015,-0.079 V -0.081 C -0.018,-0.089 -0.021,-0.097 -0.024,-0.106 -0.027,-0.114 -0.031,-0.123 -0.035,-0.131 -0.039,-0.14 -0.043,-0.148 -0.048,-0.157 -0.052,-0.165 -0.056,-0.173 -0.061,-0.181 h -0.001 v -0.001 c -0.226,-0.368 -1.022,-0.633 -1.747,-0.848 -1.503,-0.446 -1.417,-1.542 -2.603,-2.015 -1.507,-0.6 -2.012,0.304 -3.387,0.946 -1.932,0.902 -2.75,-0.409 -4.586,-0.215 -0.655,0.069 -0.991,0.216 -1.106,0.431 v 0.001 l 10e-4,10e-4 c -0.016,0.029 -0.027,0.06 -0.036,0.092 10e-4,0 0,0.002 0,0.002 -0.02,0.087 -0.012,0.183 0.02,0.289 0.005,0.016 0.011,0.033 0.017,0.05 0.006,0.017 0.012,0.034 0.019,0.051 h 0.001 v 0.001 c 0.015,0.034 0.031,0.07 0.05,0.106 l 0.001,0.001 c 0.015,0.029 0.031,0.059 0.048,0.089 0,0 10e-4,0 10e-4,10e-4 0.027,0.045 0.055,0.091 0.086,0.139 0,0 10e-4,0 10e-4,0.001 0.021,0.031 0.043,0.063 0.065,0.096 0,0 0.001,0 0.001,0.001 0.035,0.049 0.071,0.099 0.11,0.15 0.013,0.018 0.026,0.035 0.04,0.053 0.021,0.027 0.042,0.054 0.064,0.082 0.034,0.043 0.069,0.087 0.105,0.132 0.045,0.055 0.09,0.111 0.137,0.168 0.063,0.076 0.128,0.154 0.194,0.233 0.861,1.031 2.577,2.084 4.939,2.299 0.414,0.038 0.819,0.056 1.218,0.056 0.279,0 0.554,-0.009 0.825,-0.027 0.109,-0.007 0.217,-0.016 0.324,-0.025 0.215,-0.02 0.428,-0.046 0.64,-0.076 0.158,-0.024 0.315,-0.05 0.471,-0.079 0.104,-0.019 0.208,-0.04 0.311,-0.062 0.103,-0.022 0.206,-0.046 0.308,-0.07 0.102,-0.025 0.204,-0.051 0.305,-0.078 0.101,-0.028 0.202,-0.056 0.303,-0.086 0.073,-0.022 0.145,-0.044 0.218,-0.067 0.055,-0.017 0.109,-0.035 0.164,-0.054 0.072,-0.023 0.144,-0.048 0.216,-0.073 0.099,-0.035 0.197,-0.071 0.295,-0.109 h 10e-4 C -1.93,1.368 -1.832,1.329 -1.735,1.29 -1.638,1.25 -1.541,1.209 -1.444,1.167 -1.069,1.003 -0.777,0.851 -0.558,0.708 -0.507,0.676 -0.461,0.644 -0.418,0.612 -0.336,0.552 -0.267,0.493 -0.211,0.436 -0.188,0.414 -0.167,0.391 -0.148,0.369 -0.142,0.362 -0.137,0.356 -0.132,0.349 -0.126,0.342 -0.121,0.335 -0.117,0.329 -0.114,0.327 -0.113,0.325 -0.112,0.324 -0.111,0.322 -0.11,0.321 -0.109,0.32 V 0.319 C -0.103,0.311 -0.097,0.303 -0.092,0.295 -0.086,0.287 -0.081,0.279 -0.076,0.271 -0.05,0.229 -0.031,0.187 -0.018,0.147 -0.002,0.096 0.004,0.048 0,0" /></g><g
           transform="translate(36.4463,13.8379)"
           id="g136"><path
             id="path138"
             style="fill:#00caff;fill-opacity:1;fill-rule:nonzero;stroke:none"
             d="M 0,0 C -0.001,-0.001 -0.002,-0.001 -0.002,-0.001 V 0 Z" /></g><g
           transform="translate(21.2002,14.584)"
           id="g140"><path
             id="path142"
             style="fill:#00caff;fill-opacity:1;fill-rule:nonzero;stroke:none"
             d="M 0,0 C -1.658,0.212 -3.395,0.424 -4.195,0.522 -2.867,0.366 -1.346,0.179 0,0" />
             </g>
        </g>
    </g>
</g>
</svg>