<svg width="36" height="20" viewBox="0 0 36 20" fill="none" xmlns="http://www.w3.org/2000/svg">
<path d="M35.4497 8.09495C33.2366 10.2832 31.6365 14.9836 26.7267 17.6404C25.6102 18.2435 24.3192 18.747 22.8138 19.0859C21.8767 19.2953 20.8549 19.4498 19.7433 19.5196C19.6586 19.5246 19.5689 19.5345 19.4841 19.5345C19.0555 19.5545 18.7115 19.5645 18.4673 19.5694C18.3377 19.5744 18.2131 19.5744 18.0785 19.5744H17.9339C17.8492 19.5744 17.7346 19.5694 17.59 19.5694C17.0218 19.5595 16.4735 19.5395 15.9451 19.4947C15.8803 19.4947 15.8105 19.4897 15.7457 19.4797C14.8286 19.395 13.9762 19.2654 13.1886 19.0859C11.7331 18.7619 10.482 18.2784 9.39039 17.7002C4.38588 15.0584 2.78085 10.2981 0.547758 8.09495C-0.145098 7.41206 -0.0753137 7.09803 0.183884 7.00831C3.11481 6.0114 6.08063 1.65488 9.18602 0.363873C9.73433 0.134583 10.2976 0 10.8559 0C14.5694 0 15.4566 1.54522 17.9389 1.5502H18.0635C20.5409 1.54522 21.4331 0 25.1516 0C25.7099 0 26.2632 0.134583 26.8214 0.363873C29.9218 1.65488 32.8927 6.0114 35.8186 7.00831C36.0728 7.09803 36.1476 7.41206 35.4497 8.09495Z" fill="white"/>
</svg>
