<svg id="PCMIco" width="66" height="30" viewBox="0 0 66 30" fill="none" xmlns="http://www.w3.org/2000/svg">
                  <path d="M25.4719 29.2513C26.6789 29.5263 27.9853 29.7326 29.3909 29.8548C27.3741 29.7173 24.7309 29.4499 22.0953 28.9228C8.01583 26.822 5.20452 16.4859 0.834775 12.3224C-0.227105 11.314 -0.112513 10.848 0.284736 10.7181C5.55594 8.9763 10.9341 0.359039 16.6331 0.359039C17.6644 0.359039 18.5582 0.435433 19.3451 0.565303C14.5934 2.53627 10.0403 9.21313 5.5483 10.741C5.15105 10.8785 5.0441 11.3598 6.10597 12.4064C9.52843 15.7754 11.996 23.0787 19.6507 27.1276C21.3161 28.0137 23.2412 28.7548 25.4719 29.2513Z" fill="#00CAFF"/>
                  <path d="M64.8608 12.3224C60.6132 16.3713 57.8401 26.2567 44.7309 28.7318C44.708 28.7395 44.6927 28.7395 44.6698 28.7471C41.3008 29.4958 37.8096 29.7937 35.5254 29.9236C37.229 29.809 38.8027 29.5798 40.2313 29.259C42.546 28.7395 44.517 27.9755 46.2282 27.0435C53.753 22.9717 56.2053 15.7601 59.5972 12.414C60.6667 11.3674 60.5521 10.8862 60.1549 10.7486C55.6705 9.22077 51.1174 2.54391 46.3657 0.565303C47.1526 0.435433 48.0388 0.359039 49.0701 0.359039C54.7691 0.359039 60.1396 8.9763 65.4184 10.7181C65.8157 10.848 65.9226 11.314 64.8608 12.3224Z" fill="#FE2C55"/>
                  <path d="M59.5973 12.4064C56.2054 15.7601 53.7532 22.9641 46.2283 27.0359C44.5171 27.9603 42.5385 28.7319 40.2314 29.2513C38.7952 29.5722 37.2291 29.809 35.5255 29.916C35.3956 29.9236 35.2581 29.9389 35.1283 29.9389C34.4713 29.9694 33.9441 29.9847 33.5698 29.9924C33.3712 30 33.1802 30 32.9739 30H32.7524C32.6225 30 32.4468 29.9924 32.2253 29.9924C31.3544 29.9771 30.514 29.9465 29.7043 29.8778C29.605 29.8778 29.498 29.8701 29.3987 29.8549C27.993 29.725 26.6867 29.5264 25.4797 29.2513C23.249 28.7548 21.3315 28.0138 19.6584 27.1276C11.9885 23.0787 9.52856 15.783 6.1061 12.4064C5.04422 11.3598 5.15117 10.8785 5.54842 10.741C10.0404 9.21314 14.5859 2.53629 19.3452 0.557677C20.1856 0.206263 21.0488 0 21.9044 0C27.5958 0 28.9556 2.36822 32.76 2.37586H32.951C36.7478 2.36822 38.1153 0 43.8143 0C44.6699 0 45.5179 0.206263 46.3735 0.557677C51.1252 2.53629 55.6783 9.21314 60.1626 10.741C60.5522 10.8785 60.6668 11.3598 59.5973 12.4064Z" fill="#161823"/>
                  <path d="M19.7119 20.741C19.4369 21.0237 19.1007 21.1688 18.7035 21.1688C18.3139 21.1688 17.9777 21.0237 17.6951 20.741C17.4201 20.4584 17.2749 20.1222 17.2749 19.7479V19.6562V18.495V16.3865V13.8426V11.3904V9.54927V8.83116C17.2749 8.44155 17.4124 8.10541 17.6951 7.82276C17.9701 7.54774 18.3062 7.40259 18.7035 7.40259H18.7799H20.9265C21.3925 7.40259 21.6752 7.41023 21.7592 7.41787C22.3551 7.49426 22.76 7.57829 22.9739 7.66233C23.4781 7.87623 23.8372 8.05958 24.0358 8.21237C24.4407 8.48739 24.7463 8.74712 24.9449 8.99159C25.2352 9.33536 25.4644 9.65622 25.6248 9.96179C25.7623 10.2368 25.8616 10.4813 25.9304 10.6799C25.9838 10.7792 26.022 10.9167 26.0602 11.1001C26.1137 11.3369 26.1519 11.6043 26.1748 11.8946C26.1901 11.9862 26.1901 12.1314 26.1901 12.33C26.1901 12.5821 26.1595 12.8571 26.0984 13.1474C26.0755 13.3537 26.045 13.4912 26.022 13.5676C25.9991 13.644 25.9686 13.7204 25.938 13.8044C25.9074 13.8885 25.8692 13.9801 25.8311 14.0794C25.7929 14.1788 25.7623 14.2551 25.7394 14.3086C25.7165 14.3468 25.6859 14.4079 25.6477 14.492C25.6095 14.576 25.579 14.6371 25.556 14.6906C25.4262 14.8816 25.3498 14.9962 25.3116 15.0344C25.1053 15.3094 24.9525 15.5157 24.8379 15.6379C24.7768 15.699 24.6699 15.7983 24.5171 15.9205C24.2421 16.1497 24.0358 16.3025 23.9059 16.3789C23.692 16.5088 23.5621 16.5775 23.5239 16.5852C23.3712 16.6616 23.1343 16.7609 22.8058 16.8907C22.3857 17.0206 21.9808 17.0894 21.5912 17.097C21.5148 17.097 21.4307 17.097 21.3467 17.097C21.255 17.097 21.1634 17.097 21.0488 17.097C20.9418 17.097 20.8654 17.097 20.812 17.097H20.132V17.1505V18.9916V19.7326C20.132 20.1299 19.9945 20.4584 19.7119 20.741ZM21.6294 10.2597H20.6057H20.132V12.1772V14.2628H20.9495H21.6294C21.7669 14.2246 21.9349 14.1711 22.1259 14.11C22.2634 14.0489 22.4162 13.9648 22.5843 13.8655C22.676 13.7891 22.7906 13.6669 22.9433 13.4836C23.0427 13.3308 23.1343 13.1856 23.2107 13.0481C23.2871 12.8189 23.333 12.6509 23.3406 12.5363C23.3559 12.3453 23.3559 12.1619 23.3406 11.9862C23.3253 11.8716 23.2871 11.7036 23.2107 11.4744C23.1343 11.3369 23.0427 11.1917 22.9433 11.039C22.7906 10.8632 22.6683 10.7334 22.5843 10.657C22.4162 10.5577 22.2711 10.4736 22.1259 10.4125C21.9349 10.3438 21.7669 10.2903 21.6294 10.2597Z" fill="white"/>
                  <path d="M27.3442 14.0107V11.8869V11.4897C27.3672 11.1994 27.4054 10.932 27.4588 10.6952C27.4741 10.5577 27.5123 10.4202 27.5734 10.275C27.7415 9.79373 27.9172 9.44231 28.1082 9.21313C28.3985 8.86172 28.5665 8.66309 28.6047 8.6249C28.7346 8.49503 28.9332 8.3346 29.2159 8.12833C29.3687 8.02902 29.4909 7.96026 29.5749 7.92207C29.7277 7.84567 29.9646 7.74636 30.2931 7.61649C30.4611 7.56302 30.5986 7.53246 30.7132 7.52482C31.0646 7.47134 31.3397 7.44843 31.5306 7.44843C31.7675 7.44843 32.0348 7.47898 32.3251 7.5401C32.4627 7.55538 32.6002 7.59357 32.7453 7.65469C33.1731 7.78456 33.5322 7.96026 33.8301 8.18945C34.1968 8.47975 34.3954 8.64017 34.4183 8.66309C34.6093 8.86936 34.7698 9.06034 34.892 9.25133C34.9684 9.35064 35.0448 9.47287 35.1212 9.61038C35.2587 9.8854 35.358 10.1299 35.4267 10.3285C35.4802 10.4584 35.5184 10.5959 35.5413 10.7487C35.5948 11.1001 35.6177 11.3751 35.6177 11.5661C35.633 11.948 35.4955 12.2765 35.2128 12.5516C34.9302 12.8266 34.594 12.9717 34.2197 12.9717C33.8301 12.9717 33.494 12.8342 33.2113 12.5516C32.9363 12.2765 32.7911 11.9404 32.7911 11.5661V11.4133C32.7759 11.3369 32.7453 11.2223 32.6995 11.0695L32.5314 10.7869C32.5161 10.7716 32.4932 10.7487 32.4626 10.7105C32.4321 10.6723 32.4015 10.6417 32.3786 10.6188C32.3557 10.5959 32.3251 10.5729 32.3022 10.5653C32.2029 10.4889 32.096 10.4354 31.9966 10.3972C31.8821 10.3438 31.7751 10.3132 31.6758 10.3056H31.332C31.2556 10.3208 31.141 10.3514 30.9882 10.3972C30.8966 10.4354 30.8049 10.4889 30.7056 10.5653L30.4764 10.7945C30.4 10.8938 30.3465 10.9931 30.3083 11.0771C30.2549 11.2299 30.2243 11.3369 30.2167 11.398V11.6807V13.5065V15.9587V16.7914V17.2116C30.2319 17.2651 30.2625 17.372 30.3083 17.5325C30.3465 17.6241 30.4 17.7158 30.4764 17.8151C30.5299 17.8762 30.6063 17.9603 30.7056 18.0596L30.9882 18.2276C31.0646 18.2506 31.1792 18.2811 31.332 18.304C31.4466 18.327 31.5612 18.327 31.6758 18.304C31.8286 18.2811 31.9355 18.2506 31.9966 18.2276C32.073 18.1894 32.1724 18.136 32.3022 18.0596C32.4015 17.9603 32.4779 17.8762 32.5314 17.8151L32.6995 17.5325C32.7529 17.3797 32.7835 17.2727 32.7911 17.2116V17.0206C32.7911 16.6386 32.9287 16.3102 33.2113 16.0351C33.4863 15.7601 33.8225 15.615 34.2197 15.615C34.6017 15.615 34.9302 15.7525 35.2128 16.0351C35.4955 16.3102 35.633 16.6463 35.6177 17.0206C35.6177 17.1963 35.5948 17.4637 35.5413 17.8151C35.5261 17.9068 35.4955 18.0367 35.4497 18.2124C35.3733 18.4797 35.2816 18.7166 35.167 18.9305C35.0677 19.1215 34.9913 19.2437 34.9378 19.2895C34.6475 19.6944 34.3878 19.9924 34.1586 20.1833C33.8301 20.4202 33.6238 20.5729 33.5322 20.6188C33.3259 20.7334 33.0891 20.8327 32.8141 20.9244C32.7224 20.9626 32.5925 21.0084 32.4168 21.0542C32.0654 21.1077 31.798 21.1383 31.6223 21.1459C31.416 21.1459 31.2709 21.1383 31.1639 21.1306C30.7361 21.0695 30.4764 21.0237 30.3847 21.0008C30.1708 20.9396 29.9264 20.8403 29.6437 20.7181C29.5138 20.657 29.3992 20.5882 29.2847 20.5118C28.8798 20.2215 28.5818 19.9618 28.3908 19.7326C28.1617 19.4576 28.0089 19.2513 27.9325 19.1291C27.8408 18.9763 27.7338 18.7395 27.6116 18.411C27.5734 18.3193 27.5276 18.1894 27.4817 18.0137C27.4206 17.7234 27.3901 17.4561 27.3901 17.2192C27.3748 17.1658 27.3748 17.0894 27.3748 16.9748V16.3636V14.0107H27.3442Z" fill="white"/>
                  <path d="M36.7557 8.8923C36.7557 8.57908 36.855 8.28879 37.0536 8.02905C37.2522 7.76931 37.4967 7.60124 37.8023 7.52485C38.1842 7.41025 38.5509 7.45609 38.9023 7.65471C39.1162 7.79222 39.2919 7.96793 39.4142 8.16656C39.4677 8.28115 39.5364 8.3881 39.6204 8.48741L40.6441 10.0459L42.0269 12.1314L42.5387 12.9106C42.554 12.9106 42.554 12.903 42.554 12.8954L43.9367 10.8098L45.1743 8.9687L45.6861 8.1742C45.8236 7.97557 45.9994 7.79986 46.198 7.66235C46.2362 7.64708 46.2897 7.62416 46.366 7.5936C46.4424 7.56304 46.4959 7.54012 46.5341 7.52485C46.7709 7.44845 47.0307 7.44845 47.2904 7.52485C47.596 7.60124 47.8405 7.76167 48.0314 8.02141C48.2224 8.27351 48.3141 8.56381 48.3141 8.8923V8.98398V10.1452V12.2536V14.7594V17.2116V19.0375V19.7785C48.3141 20.1604 48.1766 20.4889 47.9092 20.764C47.6342 21.039 47.3057 21.1841 46.9161 21.1841C46.5265 21.1841 46.1903 21.0466 45.9077 20.764C45.6327 20.4889 45.4875 20.1528 45.4875 19.7785V19.6868V18.5103V16.4248V13.9038V13.5982L44.2728 15.4393C44.2194 15.5157 44.1506 15.6226 44.0513 15.7601C43.9596 15.8976 43.8832 16.0046 43.8298 16.081C43.8145 16.1345 43.7916 16.1803 43.7534 16.2338C43.4783 16.6998 43.0735 16.9366 42.5387 16.9366H42.5234C42.0039 16.9366 41.5914 16.6998 41.2858 16.2338C41.2858 16.2185 41.2782 16.1956 41.2706 16.1574C41.2553 16.1192 41.2476 16.0963 41.2324 16.081C41.1789 16.0275 41.1407 15.9664 41.1025 15.89L40.0788 14.3545C40.0177 14.2628 39.9337 14.1406 39.8191 13.9725C39.7121 13.8121 39.6357 13.6822 39.5822 13.5905V14.767V17.2193V19.0451V19.7861C39.5822 20.1681 39.4447 20.4966 39.1621 20.7716C38.8871 21.0466 38.5509 21.1918 38.1537 21.1918C37.7641 21.1918 37.4279 21.0543 37.1453 20.7716C36.8702 20.4966 36.7251 20.1604 36.7251 19.7861V19.6944V18.518V16.4324V13.9114V11.4821V9.64096V8.8923H36.7557Z" fill="white"/>
</svg>