<svg width="41" height="22" viewBox="0 0 41 22" fill="none" xmlns="http://www.w3.org/2000/svg">
<path d="M39.8425 9.09804C37.3551 11.5574 35.5568 16.8403 30.0386 19.8263C28.7837 20.5042 27.3327 21.07 25.6408 21.451C24.5876 21.6863 23.4392 21.8599 22.1899 21.9384C22.0946 21.944 21.9938 21.9552 21.8985 21.9552C21.4168 21.9776 21.0302 21.9888 20.7557 21.9944C20.61 22 20.47 22 20.3187 22H20.1562C20.061 22 19.9322 21.9944 19.7697 21.9944C19.131 21.9832 18.5148 21.9608 17.921 21.9104C17.8481 21.9104 17.7697 21.9048 17.6969 21.8936C16.6661 21.7983 15.7081 21.6527 14.8229 21.451C13.1871 21.0868 11.7809 20.5434 10.554 19.8936C4.92936 16.9244 3.12544 11.5742 0.615634 9.09804C-0.163078 8.33053 -0.0846463 7.97759 0.20667 7.87675C3.50079 6.7563 6.83412 1.85994 10.3243 0.408963C10.9406 0.15126 11.5736 0 12.2011 0C16.3747 0 17.3719 1.7367 20.1618 1.7423H20.3019C23.0862 1.7367 24.089 0 28.2683 0C28.8957 0 29.5176 0.15126 30.145 0.408963C33.6296 1.85994 36.9686 6.7563 40.2571 7.87675C40.5428 7.97759 40.6268 8.33053 39.8425 9.09804Z" fill="black"/>
</svg>
