<svg xmlns="http://www.w3.org/2000/svg" width="256" height="256"><path fill-opacity=".016" d="M0 128.004v128.004l128.25-.254 128.25-.254.254-127.75L257.008 0H0v128.004m.485.496c0 70.4.119 99.053.265 63.672.146-35.38.146-92.98 0-128C.604 29.153.485 58.1.485 128.5" fill="#1976D2" fill-rule="evenodd"/><path fill-opacity=".346" d="M70 57.441c0 3.204-.85 3.608-5.427 2.576C59.89 58.96 58 59.594 58 62.22c0 1.686-.508 1.932-3.174 1.541-2.765-.406-3.823.191-8.218 4.637-3.758 3.801-5.052 5.865-5.076 8.093-.018 1.645-.512 2.995-1.099 3-1.089.009-16.633 15.38-21.83 21.585-2.006 2.396-3.953 3.574-6.485 3.924-2.843.393-3.689.998-3.947 2.824-.3 2.118-.679 2.266-4.25 1.663L0 108.824v6.588C0 121.257.218 122 1.933 122c1.063 0 2.218.9 2.567 2 .349 1.1 1.264 2 2.032 2 .769 0 1.879.9 2.468 2s1.788 2 2.666 2c1.26 0 1.478.724 1.038 3.438-.644 3.97.568 5.562 4.233 5.562.516 0 .685 1.553.377 3.45-.503 3.101-.291 3.518 2.094 4.116 2.142.538 2.529 1.077 2.007 2.8-.694 2.296-.713 2.448-.533 4.472.088.999 1.132 1.167 4.118.662 3.267-.552 4-.386 4 .908 0 .871 5.625 7.076 12.5 13.79 6.875 6.713 12.5 12.849 12.5 13.635 0 1.078.871 1.287 3.546.853 3.098-.502 3.663-.266 4.475 1.869.738 1.943 1.64 2.445 4.387 2.445 2.579 0 3.618.508 4.092 2 .467 1.47 1.513 2 3.951 2 2.475 0 3.448.507 3.839 2 .445 1.704 1.364 2 6.21 2s5.765.296 6.21 2c.511 1.955 1.364 2 37.79 2 37.005 0 37.271-.015 37.815-2.098.486-1.858 1.156-2.058 5.867-1.75 4.727.309 5.428.098 6.305-1.902.742-1.69 1.822-2.25 4.344-2.25 2.515 0 3.487-.501 3.879-2 .386-1.474 1.364-2 3.721-2 2.614 0 3.801-.805 6.507-4.417 3.02-4.031 3.604-4.369 6.686-3.869 2.161.351 3.376.142 3.376-.579 0-1.443 14.699-16.135 16.142-16.135.654 0 .897-1.283.611-3.229-.386-2.627.079-3.746 2.492-6 1.632-1.524 3.353-2.771 3.826-2.771.472 0 1.34-.9 1.929-2s1.681-2 2.428-2c1.729 0 2.481-1.952 1.951-5.063-.332-1.951.483-3.106 4.092-5.795 3.847-2.867 4.472-3.819 4.268-6.5-.23-3.025-.081-3.153 4.011-3.449 2.841-.206 4.25-.775 4.25-1.715 0-.774.9-1.889 2-2.478 1.68-.899 2-2.094 2-7.465v-6.395l-3.243.93c-1.784.511-3.37.93-3.525.93-.155 0-.728-1.175-1.274-2.611-.85-2.234-1.457-2.543-4.205-2.14-2.621.385-3.735-.089-6.062-2.58-2.044-2.188-2.716-3.758-2.374-5.547.636-3.327-.155-5.122-2.257-5.122-2.496 0-3.046-.907-2.084-3.436.959-2.524.321-3.916-2.226-4.856-.963-.355-1.75-1.392-1.75-2.304 0-1.378-.684-1.55-4.025-1.016-3.241.518-4.152.314-4.674-1.046-.356-.929-1.358-2.458-2.225-3.397-2.132-2.31-5.077-6.122-6.116-7.917-.727-1.255-1.547-1.286-5.567-.211-4.945 1.323-5.954.968-6.58-2.317-.346-1.81-1.069-1.976-7.62-1.744-6.91.245-7.281.143-8.191-2.25-.8-2.105-1.6-2.506-5.002-2.506-3.457 0-4.196.386-5.054 2.641l-1.004 2.642-8.982-.678c-8.969-.678-8.983-.675-9.95 1.869-.902 2.372-1.367 2.53-6.739 2.287-5.316-.24-5.796-.084-6.091 1.989-.31 2.189-.641 2.25-12.191 2.25-6.668 0-12.136-.429-12.476-.979-.333-.539-.136-1.856.437-2.928 1.759-3.287.272-5.185-3.818-4.872-3.151.242-3.676-.033-3.965-2.076-.32-2.262-.556-2.325-6-1.599-9.486 1.264-9.634 1.237-9.983-1.796L91.867 55H80.934C70.008 55 70 55.002 70 57.441M.328 115.5c.005 3.85.185 5.302.402 3.228.216-2.075.213-5.225-.008-7-.221-1.776-.398-.078-.394 3.772" fill="#1976D2" fill-rule="evenodd"/><path fill-opacity=".348" d="M71.18 57.25c.306 2.153.729 2.25 9.82 2.25 9.091 0 9.514-.097 9.82-2.25.313-2.206.123-2.25-9.82-2.25s-10.133.044-9.82 2.25m-11.835 4.293c-.906 2.36.358 2.917 3.401 1.498 2.582-1.204 2.629-1.335.754-2.093-2.944-1.189-3.501-1.109-4.155.595M100 60.911c-2.402.684-2.422.753-.5 1.762 1.1.578 3.237 1.346 4.75 1.708 2.446.584 2.75.379 2.75-1.862 0-2.69-1.771-3.097-7-1.608m74.714-.292c-.393.393-.714 1.607-.714 2.699 0 1.887-.488 1.954-9.992 1.375l-9.991-.608-.636 2.532c-.599 2.387-.958 2.514-6.258 2.208-5.24-.303-5.645-.166-5.953 2.008l-.331 2.332-15.352-.298c-13.37-.26-15.598-.077-17.249 1.417-1.042.944-2.855 1.716-4.028 1.716-1.173 0-3.873 1.758-6 3.906-7.113 7.184-13.2 9.155-15.713 5.089-.338-.547-1.644-.995-2.901-.995s-3.106-.906-4.107-2.013c-1.713-1.892-2.838-1.993-18.923-1.695l-17.101.317-4.728 4.945c-13.938 14.579-16.513 17.42-17.044 18.804-.344.895-2.138 1.643-4.387 1.828-3.297.272-3.806.645-3.806 2.786 0 1.979.818 2.776 4.106 4 2.258.84 4.788 2.098 5.622 2.795.856.715 5.077 1.423 9.686 1.625 4.493.197 8.421.609 8.728.917 1.416 1.416-1.131 2.456-7.207 2.944-3.641.292-7.066.978-7.612 1.524-1.067 1.067 1.538 7.223 3.057 7.223 1.357 0 9.299 7.246 13.87 12.654 2.845 3.367 2.797 5.153-.234 8.596-1.785 2.028-3.351 2.75-5.968 2.75-1.951 0-3.548.436-3.548.969 0 .533 5.625 6.578 12.5 13.433 6.875 6.855 12.5 12.994 12.5 13.642 0 .806 1.11.97 3.507.521 3.142-.59 3.611-.385 4.505 1.967.865 2.274 1.398 2.537 3.988 1.968 2.605-.572 3.122-.31 4.016 2.042.888 2.337 1.431 2.619 4.037 2.097 2.533-.506 3.154-.224 3.917 1.782 1.23 3.235 2.056 3.588 6.202 2.653 4.17-.941 6.828.218 6.828 2.976 0 1.898.977 1.95 36.5 1.95H165v-2.417c0-2.974 1.392-3.502 6.314-2.399 4.379.981 5.46.542 6.702-2.726.766-2.016 1.381-2.268 4.353-1.785 3.073.498 3.499.295 3.796-1.806.293-2.073.801-2.331 4.085-2.074 2.783.218 3.75-.09 3.75-1.193 0-.818.817-2.075 1.816-2.793.999-.719 2.118-2.116 2.487-3.105.545-1.46 1.341-1.672 4.245-1.127 3.096.581 3.649.386 4.13-1.452.305-1.168 1.147-2.123 1.871-2.123s1.595-.877 1.935-1.949c.34-1.072 1.495-2.227 2.567-2.567 1.072-.34 1.949-1.263 1.949-2.051 0-.788.369-1.433.82-1.433.451 0 2.294-1.316 4.096-2.925 2.726-2.434 3.17-3.405 2.647-5.789-.557-2.536-.109-3.255 3.904-6.261 2.493-1.868 4.533-3.774 4.533-4.236 0-.461 1.1-1.257 2.445-1.768 2.117-.805 2.369-1.389 1.886-4.372-.469-2.889-.22-3.55 1.555-4.113 1.163-.369 2.114-1.102 2.114-1.628 0-.527 1.132-1.388 2.515-1.914 2.302-.875 2.458-1.308 1.848-5.127l-.667-4.171 4.21.565c3.722.499 4.31.3 5.075-1.712.476-1.251 1.764-2.51 2.861-2.797 1.697-.444 1.988-1.345 1.947-6.009-.046-5.058-.216-5.451-2.169-5.026-4.581.996-5.017 1.286-3.787 2.516 3.104 3.104-.051 8.491-3.363 5.742-1.887-1.566-10.778-.659-13.955 1.423-1.348.884-5.674 1.638-10.92 1.905-6.653.339-8.978.839-9.927 2.136-.693.948-3.203 1.942-5.703 2.259-2.456.311-5.14 1.143-5.965 1.849-.825.706-3.3 1.607-5.5 2.001-2.2.395-4.805 1.558-5.789 2.585S186.69 134 185.183 134c-1.506 0-3.509.9-4.451 2-.942 1.1-2.772 2-4.067 2-1.295 0-3.17.9-4.165 2-.995 1.1-2.34 2-2.988 2-.647 0-2.715 1.912-4.594 4.25-3.969 4.938-4.684 11.141-1.668 14.474 1.873 2.069 2.45 9.276.743 9.276-.553 0-1.984 1.125-3.18 2.5-1.706 1.963-3.125 2.5-6.599 2.5-4.26 0-5.085-.417-11.964-6.055-.852-.698-1.25-4.292-1.25-11.3v-10.277l-4.684-4.684c-2.577-2.576-5.441-4.684-6.365-4.684-.925 0-2.825-.9-4.224-2-1.698-1.336-4.057-2-7.104-2-2.629 0-6.201-.855-8.431-2.017-3.112-1.622-5.909-2.035-14.281-2.108-7.655-.068-11.999-.631-16.411-2.129-4.569-1.552-8.793-2.066-17.713-2.155-7.267-.073-12.145-.549-12.851-1.255-2.034-2.034 2.884-2.671 19.564-2.533 15.156.126 22.5-.815 22.5-2.881 0-.507 4.133-.922 9.184-.922 7.254 0 10.086.437 13.475 2.077 4.191 2.029 5.401 2.07 51.774 1.75 42.474-.292 47.619-.499 48.775-1.959.813-1.027 3.463-1.839 7.145-2.189 3.219-.306 6.595-1.227 7.502-2.048.907-.82 2.885-1.962 4.397-2.537 3.635-1.382 3.957-6.621.498-8.116-1.238-.535-3.026-1.527-3.975-2.204-1.309-.935-2.437-.963-4.687-.113-2.482.936-3.691.767-7.457-1.049C213.175 99.465 207 92.951 207 90.398c0-.73-.9-1.809-2-2.398-1.1-.589-2-1.707-2-2.485 0-.779-.614-1.775-1.365-2.215-.75-.44-2.112-2.263-3.025-4.05-.914-1.787-2.051-3.25-2.527-3.25-.477 0-1.171-1.213-1.542-2.695-.528-2.1-.187-3.064 1.547-4.372 1.469-1.108 2.001-2.258 1.567-3.39-.574-1.495-1.601-1.625-8.072-1.019-7.262.681-7.422.646-7.749-1.664-.255-1.804-1.049-2.43-3.37-2.657-1.67-.164-3.357.024-3.75.416M51 64.914C51 66.18 44.267 73 43.018 73c-1.229 0-1.282 1.035-.146 2.828.628.989 2.283-.114 6.497-4.327 3.11-3.11 5.397-6.07 5.084-6.578-.739-1.194-3.453-1.201-3.453-.009m59.537-.018c-1.836.729-1.782.898.836 2.613 2.367 1.551 2.936 1.614 3.696.412 1.861-2.943-.6-4.586-4.532-3.025m94.213 3.793c-2.563.67-2.138 2.184 1 3.56 1.512.663 4.887 2.681 7.5 4.485 2.613 1.804 4.75 2.813 4.75 2.242 0-.571-.675-1.298-1.5-1.614-.825-.317-1.5-1.177-1.5-1.912 0-.735-.817-1.925-1.816-2.643-.999-.719-2.109-2.094-2.468-3.057-.634-1.698-2.355-2.004-5.966-1.061m18.374 12.745l-2.193 1.174 2.784 2.622c1.532 1.443 3.499 3.641 4.372 4.885l1.586 2.262 1-2.939c.893-2.622.659-3.273-2.178-6.058-2.771-2.721-3.458-2.97-5.371-1.946M231 95.239c0 1.308.643 3.252 1.429 4.32 1.587 2.157 2.305 1.248 2.809-3.556.202-1.925-.253-2.57-1.988-2.819-1.793-.258-2.25.16-2.25 2.055m6.02 8.285c.696.838 1.471 1.318 1.723 1.067.693-.694-.716-2.591-1.924-2.591-.664 0-.588.574.201 1.524m5.98 3.354c0 1.445 2.834 3.343 3.956 2.649 2.023-1.25 1.083-3.527-1.456-3.527-1.375 0-2.5.395-2.5.878M1 112c0 2.3 2.215 2.65 3.903.617.889-1.071.785-1.523-.459-2C1.774 109.592 1 109.903 1 112m0 6.5c0 1.782.541 2.5 1.883 2.5 1.043 0 2.117.893 2.407 2 .287 1.1 1.21 2 2.049 2s1.812.9 2.161 2c.591 1.863 3.517 2.913 3.486 1.25-.008-.412-1.796-2.775-3.974-5.25a804.432 804.432 0 01-5.025-5.75C2.287 115.256 1 115.795 1 118.5m12.46 15.625c-.891 2.809 2.551 5.284 4.027 2.896.719-1.163-1.168-5.021-2.455-5.021-.493 0-1.201.956-1.572 2.125m4.54 8.816c0 2.199 1.506 3.482 3.003 2.557.667-.412.655-1.269-.035-2.559-1.336-2.495-2.968-2.494-2.968.002m3.972 8.111c-.825 1.542-.718 2.108.485 2.57 2.26.867 4.596-.32 3.949-2.007-.917-2.389-3.295-2.691-4.434-.563" fill="#1976D2" fill-rule="evenodd"/><path fill-opacity=".262" d="M72 57c0 1.852.667 2 9 2s9-.148 9-2-.667-2-9-2-9 .148-9 2m103.709 3.624c-1.862 1.862-.611 4.074 2.352 4.159 2.596.073 3.014-.245 2.75-2.098-.308-2.161-3.652-3.511-5.102-2.061M103 62c1.957 1.264 4 1.264 4 0 0-.55-1.237-.993-2.75-.985-2.143.012-2.419.23-1.25.985m51.919 3.05c-.666.412-.946 1.437-.623 2.278.434 1.131 1.303 1.339 3.33.797 1.509-.404 2.904-1.216 3.101-1.805.436-1.309-4.129-2.307-5.808-1.27M51 66c0 .55.423 1 .941 1s1.219-.45 1.559-1c.34-.55-.084-1-.941-1S51 65.45 51 66m60-.535c0 .255.9.946 2 1.535 1.596.854 2 .76 2-.465 0-.868-.869-1.535-2-1.535-1.1 0-2 .209-2 .465m78.496.542c-.343.554.082 1.277.943 1.608 2.017.774 6.561-.358 6.561-1.634 0-1.294-6.703-1.271-7.504.026M142 71c0 2.235 1.181 2.509 4.094.95 2.47-1.322 1.558-2.95-1.653-2.95-1.774 0-2.441.546-2.441 2m64-1.107c0 .491.712 1.166 1.582 1.5 2.235.858 2.418.79 2.418-.893 0-.833-.889-1.5-2-1.5-1.1 0-2 .402-2 .893M43 74.559c0 .857.45 1.281 1 .941.55-.34 1-1.041 1-1.559S44.55 73 44 73s-1 .702-1 1.559m79.738-.867c-3.401.887-.568 2.308 4.571 2.293 6.459-.019 9.244-1.424 4.647-2.344-3.463-.692-6.432-.676-9.218.051M38.29 83c-.288 1.1-1.188 2-2 2-.813 0-1.713.9-2 2-.288 1.1-1.188 2-2 2-.813 0-1.709.885-1.992 1.967-.282 1.082-1.365 2.237-2.406 2.567-1.041.331-1.892 1.418-1.892 2.417 0 .999-.9 2.051-2 2.339-1.898.496-2.886 2.71-1.209 2.71.436 0 4.739-3.825 9.564-8.5s9.193-8.5 9.708-8.5c.516 0 .937-.675.937-1.5 0-2.288-4.095-1.854-4.71.5m185.41-1.25c-.644 1.155 6.123 7.346 6.812 6.231.804-1.301-.297-2.981-1.954-2.981-.729 0-1.56-.9-1.848-2-.519-1.986-2.209-2.687-3.01-1.25m8.693 13.832c.334.87.607 1.796.607 2.059 0 .262.45.199 1-.141 1.593-.985 1.157-3.5-.607-3.5-1.055 0-1.398.544-1 1.582M10.459 107.067c-.363.586-.419 1.306-.126 1.6.717.716 2.667-.546 2.667-1.726 0-1.278-1.726-1.193-2.541.126M245 106.941c0 .518.45 1.219 1 1.559.55.34 1-.084 1-.941s-.45-1.559-1-1.559-1 .423-1 .941m8.115 3.967c-1.114.705-.989 1.089.64 1.961 1.683.901 2.111.75 2.541-.893.547-2.092-.832-2.556-3.181-1.068m.512 6.608c-1.762 1.762-1.354 3.484.825 3.484 1.681 0 2.913-3.035 1.716-4.232-.529-.529-1.571-.222-2.541.748M1 119c0 .55.702 1 1.559 1s1.281-.45.941-1c-.34-.55-1.041-1-1.559-1S1 118.45 1 119m246.504 3.373c-1.814 1.327-1.803 1.397.3 2.065 2.553.81 4.196.028 4.196-1.997 0-1.82-2.057-1.851-4.496-.068M6 123c0 .55.477 1 1.059 1s.781-.45.441-1-.816-1-1.059-1-.441.45-.441 1m21 2.583c0 1.766 2.153 1.459 2.771-.395.218-.654-.317-1.188-1.188-1.188S27 124.713 27 125.583m213.2 4.617c-1.763 1.763-1.467 2.8.8 2.8 1.333 0 2-.667 2-2 0-2.267-1.037-2.563-2.8-.8M14 135.5c0 .825.73 1.5 1.622 1.5 1.329 0 1.398-.271.378-1.5-.685-.825-1.415-1.5-1.622-1.5-.208 0-.378.675-.378 1.5m223.02-.024c-.789.95-.865 1.524-.201 1.524 1.208 0 2.617-1.897 1.924-2.591-.252-.251-1.027.229-1.723 1.067m-6.924 9.554c-2.228 2.772-2.738 3.97-1.693 3.97.824 0 1.857-.596 2.297-1.325.44-.729 1.587-1.615 2.55-1.969.963-.354 1.75-1.306 1.75-2.116 0-2.962-1.788-2.437-4.904 1.44M22.15 151.95c.22.66.726 1.166 1.125 1.125 1.196-.124.964-1.495-.325-1.925-.66-.22-1.02.14-.8.8M33.846 159c3.568 3.567 4.643 3.845 2.912.75-1.491-2.667-2.777-3.714-4.585-3.735-.73-.008.023 1.335 1.673 2.985m178.091 8.518c-5.19 5.24-9.624 9.743-9.854 10.005-.229.262.506.477 1.634.477 1.209 0 2.264-.82 2.573-2 .287-1.1 1.24-2 2.116-2 .877 0 1.594-.717 1.594-1.594 0-.876.858-1.818 1.908-2.092 1.049-.274 2.132-1.357 2.406-2.406.274-1.05 1.186-1.908 2.025-1.908s1.812-.9 2.161-2 1.253-2 2.008-2c1.803 0 2.547-1.293 1.614-2.803-.498-.806-3.89 1.965-10.185 8.321M51 175.819c0 1.208 1.897 2.617 2.591 1.924.251-.252-.229-1.027-1.067-1.723-.95-.789-1.524-.865-1.524-.201m4 4.046c0 2.304.844 3.132 2.535 2.483 1.596-.612.895-2.969-1.112-3.739-.906-.348-1.423.108-1.423 1.256m135.446 4.222c-.369.598-.21 1.549.354 2.113 1.262 1.262 3.2.196 3.2-1.759 0-1.684-2.574-1.94-3.554-.354M64 185c0 .55.477 1 1.059 1s.781-.45.441-1-.816-1-1.059-1-.441.45-.441 1m118.097 3.383c-.889 1.071-.785 1.523.459 2 2.323.892 2.444.823 2.444-1.383 0-2.325-1.263-2.593-2.903-.617M72 189c0 .55.702 1 1.559 1s1.281-.45.941-1c-.34-.55-1.041-1-1.559-1s-.941.45-.941 1m8 4c0 1.313.667 2 1.941 2 2.783 0 3.455-1.718 1.153-2.95-2.719-1.455-3.094-1.339-3.094.95m91.63-.853c-1.51.877-1.606 1.254-.5 1.955 2.608 1.652 5.87 1.04 5.87-1.102 0-2.229-2.357-2.603-5.37-.853m-79.023 4.435c-1.174 3.06-.549 3.418 5.966 3.418 5.658 0 6.528-.238 6.245-1.706-.594-3.084-11.118-4.56-12.211-1.712m62.893-.873c-1.953.51-3.454 2.036-3.485 3.541-.008.412 2.941.75 6.555.75 6.24 0 6.553-.113 6.25-2.25-.257-1.806-1.01-2.281-3.82-2.407-1.925-.086-4.4.078-5.5.366" fill="#1976D2" fill-rule="evenodd"/></svg>