<svg id="visual" viewBox="0 0 900 600" width="900" height="600" xmlns="http://www.w3.org/2000/svg" xmlns:xlink="http://www.w3.org/1999/xlink" version="1.1"><rect x="0" y="0" width="900" height="600" fill="#001220"></rect><defs><linearGradient id="grad1_0" x1="33.3%" y1="100%" x2="100%" y2="0%"><stop offset="20%" stop-color="#cccccc" stop-opacity="1"></stop><stop offset="80%" stop-color="#cccccc" stop-opacity="1"></stop></linearGradient></defs><defs><linearGradient id="grad1_1" x1="33.3%" y1="100%" x2="100%" y2="0%"><stop offset="20%" stop-color="#cccccc" stop-opacity="1"></stop><stop offset="80%" stop-color="#616770" stop-opacity="1"></stop></linearGradient></defs><defs><linearGradient id="grad1_2" x1="33.3%" y1="100%" x2="100%" y2="0%"><stop offset="20%" stop-color="#001220" stop-opacity="1"></stop><stop offset="80%" stop-color="#616770" stop-opacity="1"></stop></linearGradient></defs><defs><linearGradient id="grad2_0" x1="0%" y1="100%" x2="66.7%" y2="0%"><stop offset="20%" stop-color="#cccccc" stop-opacity="1"></stop><stop offset="80%" stop-color="#cccccc" stop-opacity="1"></stop></linearGradient></defs><defs><linearGradient id="grad2_1" x1="0%" y1="100%" x2="66.7%" y2="0%"><stop offset="20%" stop-color="#616770" stop-opacity="1"></stop><stop offset="80%" stop-color="#cccccc" stop-opacity="1"></stop></linearGradient></defs><defs><linearGradient id="grad2_2" x1="0%" y1="100%" x2="66.7%" y2="0%"><stop offset="20%" stop-color="#616770" stop-opacity="1"></stop><stop offset="80%" stop-color="#001220" stop-opacity="1"></stop></linearGradient></defs><g transform="translate(900, 600)"><path d="M-324.5 0C-305.9 -35.7 -287.4 -71.4 -275.3 -114C-263.3 -156.6 -257.7 -206.1 -229.5 -229.5C-201.2 -252.8 -150.3 -250 -108.3 -261.5C-66.3 -272.9 -33.1 -298.7 0 -324.5L0 0Z" fill="#303a46"></path><path d="M-216.3 0C-204 -23.8 -191.6 -47.6 -183.5 -76C-175.5 -104.4 -171.8 -137.4 -153 -153C-134.1 -168.5 -100.2 -166.7 -72.2 -174.3C-44.2 -182 -22.1 -199.1 0 -216.3L0 0Z" fill="#95989d"></path><path d="M-108.2 0C-102 -11.9 -95.8 -23.8 -91.8 -38C-87.8 -52.2 -85.9 -68.7 -76.5 -76.5C-67.1 -84.3 -50.1 -83.3 -36.1 -87.2C-22.1 -91 -11 -99.6 0 -108.2L0 0Z" fill="#cccccc"></path></g><g transform="translate(0, 0)"><path d="M324.5 0C332.6 55.3 340.8 110.6 299.8 124.2C258.8 137.7 168.7 109.5 137.2 137.2C105.7 164.9 132.9 248.6 119.8 289.2C106.7 329.7 53.3 327.1 0 324.5L0 0Z" fill="#303a46"></path><path d="M216.3 0C221.8 36.9 227.2 73.8 199.9 82.8C172.5 91.8 112.4 73 91.5 91.5C70.5 109.9 88.6 165.7 79.9 192.8C71.1 219.8 35.6 218.1 0 216.3L0 0Z" fill="#95989d"></path><path d="M108.2 0C110.9 18.4 113.6 36.9 99.9 41.4C86.3 45.9 56.2 36.5 45.7 45.7C35.2 55 44.3 82.9 39.9 96.4C35.6 109.9 17.8 109 0 108.2L0 0Z" fill="#cccccc"></path></g></svg>