<svg id="visual" viewBox="0 0 540 960" width="540" height="960" xmlns="http://www.w3.org/2000/svg" xmlns:xlink="http://www.w3.org/1999/xlink" version="1.1"><rect x="0" y="0" width="540" height="960" fill="#001220"></rect><defs><linearGradient id="grad1_0" x1="0%" y1="0%" x2="100%" y2="100%"><stop offset="30%" stop-color="#cccccc" stop-opacity="1"></stop><stop offset="70%" stop-color="#cccccc" stop-opacity="1"></stop></linearGradient></defs><defs><linearGradient id="grad1_1" x1="0%" y1="0%" x2="100%" y2="100%"><stop offset="30%" stop-color="#cccccc" stop-opacity="1"></stop><stop offset="70%" stop-color="#001220" stop-opacity="1"></stop></linearGradient></defs><defs><linearGradient id="grad2_0" x1="0%" y1="0%" x2="100%" y2="100%"><stop offset="30%" stop-color="#cccccc" stop-opacity="1"></stop><stop offset="70%" stop-color="#cccccc" stop-opacity="1"></stop></linearGradient></defs><defs><linearGradient id="grad2_1" x1="0%" y1="0%" x2="100%" y2="100%"><stop offset="30%" stop-color="#001220" stop-opacity="1"></stop><stop offset="70%" stop-color="#cccccc" stop-opacity="1"></stop></linearGradient></defs><g transform="translate(540, 0)"><path d="M0 324C-36.5 325.2 -73 326.5 -100.1 308.1C-127.3 289.8 -145 251.9 -162.8 224.1C-180.6 196.3 -198.4 178.4 -218.4 158.7C-238.5 139 -260.7 117.3 -278.7 90.5C-296.6 63.8 -310.3 31.9 -324 0L0 0Z" fill="#616770"></path><path d="M0 162C-18.2 162.6 -36.5 163.2 -50.1 154.1C-63.6 144.9 -72.5 126 -81.4 112C-90.3 98.1 -99.2 89.2 -109.2 79.4C-119.2 69.5 -130.3 58.7 -139.3 45.3C-148.3 31.9 -155.2 15.9 -162 0L0 0Z" fill="#cccccc"></path></g><g transform="translate(0, 960)"><path d="M0 -324C38.5 -327.3 76.9 -330.6 100.1 -308.1C123.3 -285.7 131.3 -237.3 156.9 -216C182.6 -194.7 226 -200.3 254.8 -185.2C283.7 -170 298.1 -134.1 307.2 -99.8C316.3 -65.5 320.2 -32.7 324 0L0 0Z" fill="#616770"></path><path d="M0 -162C19.2 -163.7 38.5 -165.3 50.1 -154.1C61.7 -142.8 65.6 -118.7 78.5 -108C91.3 -97.3 113 -100.1 127.4 -92.6C141.9 -85 149 -67.1 153.6 -49.9C158.2 -32.7 160.1 -16.4 162 0L0 0Z" fill="#cccccc"></path></g></svg>