<?xml version="1.0" encoding="utf-8"?>
<!-- Generator: Adobe Illustrator 24.2.1, SVG Export Plug-In . SVG Version: 6.00 Build 0)  -->
<svg version="1.1" id="vibro2000" xmlns="http://www.w3.org/2000/svg" xmlns:xlink="http://www.w3.org/1999/xlink" x="0px" y="0px"
	 viewBox="0 0 32 32" style="enable-background:new 0 0 32 32;" xml:space="preserve">
<style type="text/css">
	.st0{fill:#FE2C55;}
</style>
<g>
	<circle class="st0" cx="16" cy="16" r="16"/>
	<g>
		<path d="M18.7,21.5c-3.4,0.8-3.5-0.4-3.5-0.4c0,0-0.1-0.6,1.1-1.1c1.8-0.8,6.5-3.1,7.2-7.5c0.2-1.4-0.3-3.6-1.7-5.1
			c0,0-0.1-0.1-0.1-0.1c-0.9-0.9-1.6-1-2.4-0.8C18,6.7,17,8.3,17,9.4c0,1,0.4,2.3,0.5,2.4c0,0,0,0,0,0c0.7,1.2,0.6,2.8-0.5,3.9
			l-6.5,6.5c-0.6,0.6-1.4,0.9-2.3,0.9s-1.6-0.3-2.3-0.9c-1.3-1.3-1.3-3.3,0-4.5l6.3-6.3c1.7-1.7,4.1-5.8,6.5-6.5
			c1.3-0.4,2.7,0.2,4,1.5l0,0c1.5,1.5,2.6,4,2.2,6.5C23.9,17.7,21,21,18.7,21.5z"/>
	</g>
</g>
</svg>
