<?xml version="1.0" standalone="no"?><svg xmlns="http://www.w3.org/2000/svg" viewBox="0 0 1440 320"><path id="c1" fill="#f3f4f5" fill-opacity="1" d="M0,32L24,37.3C48,43,96,53,144,80C192,107,240,149,288,144C336,139,384,85,432,74.7C480,64,528,96,576,122.7C624,149,672,171,720,197.3C768,224,816,256,864,256C912,256,960,224,1008,224C1056,224,1104,256,1152,234.7C1200,213,1248,139,1296,96C1344,53,1392,43,1416,37.3L1440,32L1440,320L1416,320C1392,320,1344,320,1296,320C1248,320,1200,320,1152,320C1104,320,1056,320,1008,320C960,320,912,320,864,320C816,320,768,320,720,320C672,320,624,320,576,320C528,320,480,320,432,320C384,320,336,320,288,320C240,320,192,320,144,320C96,320,48,320,24,320L0,320Z"></path></svg>